<?xml version="1.0" encoding="UTF-8"?>
<svg version="1.1" xmlns="http://www.w3.org/2000/svg" width="1080" height="1080">
<path d="M0 0 C1.90060076 0.60930808 3.80570025 1.20461134 5.71289062 1.79296875 C41.57154937 12.88572174 75.05857377 28.69673173 105.52832031 50.81054688 C106.2540625 51.33422852 106.97980469 51.85791016 107.72753906 52.39746094 C115.16974927 57.79206125 122.39827252 63.29533429 129.12207031 69.58007812 C131.07970308 71.39470201 133.06854062 73.13329783 135.09472656 74.86914062 C140.08745088 79.22512686 144.78138515 83.87754495 149.46411133 88.56103516 C150.95473647 90.04947925 152.45319048 91.52971964 153.95214844 93.00976562 C160.26095962 99.28190108 166.00502976 105.82402548 171.52832031 112.81054688 C172.43329198 113.91033154 173.34037972 115.00838394 174.25097656 116.10351562 C186.52210888 131.28366429 197.41743995 147.79085681 206.57226562 165.03076172 C207.50681518 166.77051306 208.48202934 168.48822531 209.45800781 170.20507812 C227.7191608 202.87714099 238.62003881 239.79596164 244.40332031 276.62304688 C244.60658936 277.9146875 244.8098584 279.20632813 245.01928711 280.53710938 C247.36434646 296.31573305 247.73757349 311.95697272 247.71582031 327.87304688 C247.71455139 328.82918884 247.71328247 329.78533081 247.7119751 330.77044678 C247.67712977 344.54068783 247.60712492 358.17054986 245.52832031 371.81054688 C245.35059082 372.99600098 245.17286133 374.18145508 244.98974609 375.40283203 C236.68654353 429.56203924 216.69154983 481.29199044 184.52832031 525.81054688 C184.00318848 526.53918945 183.47805664 527.26783203 182.93701172 528.01855469 C177.54402848 535.45749781 172.04101055 542.68319764 165.75878906 549.40429688 C163.94416518 551.36192965 162.20556936 553.35076718 160.46972656 555.37695312 C156.11374033 560.36967744 151.46132224 565.06361171 146.77783203 569.74633789 C145.28938794 571.23696303 143.80914755 572.73541705 142.32910156 574.234375 C136.05696611 580.54318619 129.51484171 586.28725632 122.52832031 591.81054688 C121.42853565 592.71551855 120.33048325 593.62260628 119.23535156 594.53320312 C102.91802219 607.72359488 85.13631309 619.14007653 66.52832031 628.81054688 C65.54871338 629.32705811 65.54871338 629.32705811 64.54931641 629.85400391 C-16.28712052 672.33013517 -110.24916801 678.75073597 -197.02246094 652.12304688 C-208.67901993 648.44050744 -219.90433732 643.90866359 -231.04931641 638.8984375 C-233.26876989 637.90167427 -235.49610505 636.92522203 -237.72558594 635.95117188 C-261.42537011 625.39711779 -283.20508943 610.9030596 -303.47167969 594.81054688 C-304.87160156 593.70259766 -304.87160156 593.70259766 -306.29980469 592.57226562 C-317.21809875 583.79083768 -327.21805411 574.16661655 -337.15917969 564.31054688 C-338.03815918 563.44461914 -338.91713867 562.57869141 -339.82275391 561.68652344 C-345.80846262 555.70868918 -351.22217739 549.43973005 -356.47167969 542.81054688 C-357.06746826 542.07400879 -357.66325684 541.3374707 -358.27709961 540.57861328 C-371.85516194 523.78422646 -383.41104485 505.910724 -393.47167969 486.81054688 C-393.82037109 486.1516748 -394.1690625 485.49280273 -394.52832031 484.81396484 C-410.87554494 453.69016193 -421.90028499 420.16763731 -428.22167969 385.62304688 C-428.42051758 384.54418213 -428.61935547 383.46531738 -428.82421875 382.35375977 C-431.8831907 364.76467103 -432.82361635 347.32433833 -432.72167969 329.49804688 C-432.71824554 328.50998047 -432.7148114 327.52191406 -432.71127319 326.50390625 C-432.65304922 312.19959093 -432.51578741 297.99278455 -430.47167969 283.81054688 C-430.31570313 282.71532715 -430.15972656 281.62010742 -429.99902344 280.49169922 C-425.19335774 247.90661595 -415.98080295 216.81210824 -402.47167969 186.81054688 C-401.98296387 185.70549805 -401.98296387 185.70549805 -401.484375 184.578125 C-390.6440618 160.11159428 -376.14549982 137.68785107 -359.47167969 116.81054688 C-358.36759766 115.41642578 -358.36759766 115.41642578 -357.24121094 113.99414062 C-348.460865 103.06921462 -338.83078587 93.06723516 -328.97167969 83.12304688 C-328.10575195 82.24406738 -327.23982422 81.36508789 -326.34765625 80.45947266 C-320.36982199 74.47376394 -314.10086286 69.06004917 -307.47167969 63.81054688 C-306.7351416 63.2147583 -305.99860352 62.61896973 -305.23974609 62.00512695 C-256.62748603 22.70269191 -198.25789459 -1.55674079 -136.47167969 -10.18945312 C-135.0746582 -10.38643799 -135.0746582 -10.38643799 -133.64941406 -10.58740234 C-90.27151151 -16.32764817 -41.79395451 -13.40525773 0 0 Z " fill="#060522" transform="translate(640.4716796875,203.189453125)"/>
<path d="M0 0 C1.16088135 0.19335938 1.16088135 0.19335938 2.34521484 0.390625 C49.85189237 8.57849043 90.08838612 30.10528816 125 63 C126.17369141 64.09248047 126.17369141 64.09248047 127.37109375 65.20703125 C133.98792852 71.5643823 139.49378485 78.68879357 145 86 C145.41894531 86.5475293 145.83789062 87.09505859 146.26953125 87.65917969 C174.20194563 124.30384712 190.34051145 171.01273414 190.125 217.125 C190.11774902 218.77121338 190.11774902 218.77121338 190.11035156 220.45068359 C189.64928718 283.34908727 164.23485104 339.5348128 119.58203125 383.5703125 C106.5045397 395.87621227 91.57755844 406.14873869 76 415 C75.42378906 415.33596191 74.84757812 415.67192383 74.25390625 416.01806641 C23.62422533 445.45159123 -38.17403837 449.35076487 -94 435 C-100.82343395 433.06563447 -107.43507037 430.6759004 -114 428 C-114.81871582 427.66629395 -115.63743164 427.33258789 -116.48095703 426.98876953 C-144.38295546 415.40568716 -168.08630413 398.64770519 -190 378 C-190.78246094 377.27167969 -191.56492187 376.54335938 -192.37109375 375.79296875 C-198.98792852 369.4356177 -204.49378485 362.31120643 -210 355 C-210.41894531 354.4524707 -210.83789062 353.90494141 -211.26953125 353.34082031 C-245.30600981 308.68820201 -261.02292835 249.54752897 -254.12280273 193.83886719 C-251.39089353 175.07467809 -247.12264075 156.59047952 -240 139 C-239.69336426 138.24074219 -239.38672852 137.48148438 -239.07080078 136.69921875 C-219.78751448 89.75556272 -185.04111525 51.0244235 -141 26 C-140.42378906 25.66403809 -139.84757812 25.32807617 -139.25390625 24.98193359 C-119.94870335 13.75886921 -98.26624781 6.29892786 -76.37890625 2.18969727 C-74.3678297 1.81115033 -72.35972626 1.41906687 -70.3515625 1.02539062 C-47.55840549 -3.3789565 -22.94715208 -3.85684036 0 0 Z " fill="#FEFEFE" transform="translate(581,310)"/>
<path d="M0 0 C3.14767334 1.09463138 5.7610723 1.10806323 9.08984375 1.06640625 C10.33378906 1.05738281 11.57773437 1.04835938 12.859375 1.0390625 C16.07985097 0.89844534 19.09863275 0.49600795 22.27734375 0.00390625 C36.48587613 -1.32576924 52.15583973 7.60205352 62.83984375 16.12890625 C70.82359692 23.56377639 76.14889846 33.56229725 76.71484375 44.50390625 C76.62203125 45.67953125 76.62203125 45.67953125 76.52734375 46.87890625 C77.68234375 46.94078125 78.83734375 47.00265625 80.02734375 47.06640625 C86.41732014 47.88070413 90.75656165 51.14836919 95.27734375 55.56640625 C100.12973626 62.05812055 101.662841 68.48056408 101.90234375 76.50390625 C102.17975148 83.56002091 103.83602801 86.81688708 108.52734375 91.87890625 C111.21485383 96.52096911 111.08736878 101.65200601 110.52734375 106.87890625 C109.74622982 109.42542795 108.76661698 111.50363256 107.52734375 113.87890625 C108.08421875 113.9046875 108.64109375 113.93046875 109.21484375 113.95703125 C116.6634182 114.51064151 121.76132563 116.67738163 127.58984375 121.31640625 C129.52734375 123.87890625 129.52734375 123.87890625 129.30859375 126.265625 C125.74249456 138.1942268 114.78256503 145.14186648 104.52734375 150.87890625 C107.33798482 152.75266696 110.02617833 154.03938987 113.08984375 155.44140625 C125.01058482 161.43772594 132.04244415 169.95920823 137.52734375 181.87890625 C137.52734375 182.86890625 137.52734375 183.85890625 137.52734375 184.87890625 C125.12520249 190.51624319 110.54396082 187.7289838 97.52734375 185.87890625 C98.23310547 187.13380859 98.23310547 187.13380859 98.953125 188.4140625 C105.53628838 200.54400369 108.7139101 212.91393309 107.52734375 226.87890625 C107.19734375 227.86890625 106.86734375 228.85890625 106.52734375 229.87890625 C97.94720099 230.5118676 92.80284962 229.25608308 86.0546875 223.92578125 C80.46073335 219.09962473 75.81562038 213.88533345 71.52734375 207.87890625 C71.04523438 208.64976562 70.563125 209.420625 70.06640625 210.21484375 C69.11894531 211.71917969 69.11894531 211.71917969 68.15234375 213.25390625 C67.52585937 214.25164062 66.899375 215.249375 66.25390625 216.27734375 C64.52734375 218.87890625 64.52734375 218.87890625 62.52734375 220.87890625 C61.20734375 220.87890625 59.88734375 220.87890625 58.52734375 220.87890625 C58.19734375 219.55890625 57.86734375 218.23890625 57.52734375 216.87890625 C55.194396 216.83648902 52.86031808 216.83797688 50.52734375 216.87890625 C49.14538835 218.05211084 49.14538835 218.05211084 49.15234375 221.31640625 C49.42500725 235.24703246 63.11602879 246.9171823 72.44140625 255.99609375 C76.90480538 260.23760305 81.67241672 264.09435683 86.52734375 267.87890625 C83.08366458 274.61653941 78.41978306 280.1373659 73.52734375 285.87890625 C72.84027344 286.69101562 72.15320313 287.503125 71.4453125 288.33984375 C67.14070468 293.31518928 62.63035581 297.73053931 57.52734375 301.87890625 C56.14289063 303.01972656 56.14289063 303.01972656 54.73046875 304.18359375 C41.65050425 314.73584782 27.16649469 322.7863043 11.52734375 328.87890625 C9.79871094 329.55373047 9.79871094 329.55373047 8.03515625 330.2421875 C-8.65385687 336.24502852 -27.0111916 339.97310632 -44.7421875 340.1171875 C-45.72805344 340.12689072 -46.71391937 340.13659393 -47.72966003 340.14659119 C-50.9148669 340.17150041 -54.09986173 340.18411533 -57.28515625 340.19140625 C-58.36756592 340.19402466 -59.44997559 340.19664307 -60.56518555 340.19934082 C-76.87892086 340.20358004 -92.51006403 339.54225048 -108.47265625 335.87890625 C-109.32762695 335.68683594 -110.18259766 335.49476563 -111.06347656 335.296875 C-115.56619299 334.26708221 -120.02838191 333.14102645 -124.47265625 331.87890625 C-124.47265625 331.21890625 -124.47265625 330.55890625 -124.47265625 329.87890625 C-122.54660364 328.28191278 -120.61328108 326.79255585 -118.59765625 325.31640625 C-104.47901019 314.66820082 -90.51390699 302.20058754 -87.47265625 283.87890625 C-86.64320851 276.27563531 -89.50048838 270.85528459 -93.59765625 264.671875 C-95.91850033 261.97921831 -96.57511797 261.85549235 -100.3359375 260.99609375 C-101.81758517 260.89244695 -103.30105916 260.8128833 -104.78515625 260.75390625 C-106.39780707 260.62951445 -108.00981442 260.49651808 -109.62109375 260.35546875 C-110.4315918 260.28489258 -111.24208984 260.21431641 -112.07714844 260.14160156 C-123.90242802 258.84482202 -136.82448616 255.37374017 -145.03515625 246.31640625 C-148.95542779 241.14209972 -150.31781935 236.41649144 -149.47265625 229.87890625 C-148.655187 227.41652936 -147.60254043 225.22906535 -146.47265625 222.87890625 C-145.61146491 220.70544057 -145.61146491 220.70544057 -145.47265625 218.87890625 C-146.46265625 217.88890625 -146.46265625 217.88890625 -147.47265625 216.87890625 C-147.93642437 209.57455842 -147.93642437 209.57455842 -145.47265625 205.87890625 C-146.23578125 205.61078125 -146.99890625 205.34265625 -147.78515625 205.06640625 C-150.42125743 203.90161736 -151.8259713 203.21893223 -153.47265625 200.87890625 C-153.84765625 198.44140625 -153.84765625 198.44140625 -153.47265625 195.87890625 C-152.95703125 195.23953125 -152.44140625 194.60015625 -151.91015625 193.94140625 C-150.17219366 191.87899079 -150.17219366 191.87899079 -150.53515625 188.81640625 C-151.64947785 185.32486523 -152.37969411 184.73263521 -155.47265625 182.87890625 C-158.70051046 181.94939684 -158.70051046 181.94939684 -162.16015625 181.31640625 C-164.27754307 180.89952364 -166.38734202 180.43440837 -168.47265625 179.87890625 C-170.0371798 176.74985915 -169.78022242 174.34081379 -169.47265625 170.87890625 C-168.09484069 168.46333174 -166.80477278 166.52592029 -165.09765625 164.37890625 C-164.18014204 163.16046992 -163.26484986 161.9403578 -162.3515625 160.71875 C-161.87734863 160.09210449 -161.40313477 159.46545898 -160.91455078 158.81982422 C-158.51926953 155.59556314 -156.27148574 152.27706206 -154.03515625 148.94140625 C-153.62281738 148.33941406 -153.21047852 147.73742187 -152.78564453 147.1171875 C-148.65733527 140.96132511 -146.24420985 135.19618372 -145.47265625 127.75390625 C-144.6362981 120.64486197 -143.22674878 113.81341871 -141.47265625 106.87890625 C-142.77009766 107.36230469 -142.77009766 107.36230469 -144.09375 107.85546875 C-156.76730591 111.6941643 -169.13627167 107.30229063 -180.41015625 101.44140625 C-184.85859457 98.94252564 -188.76308421 96.37650275 -192.47265625 92.87890625 C-191.47648554 90.27963545 -190.81599906 89.08545314 -188.3972168 87.63037109 C-187.559729 87.28699707 -186.72224121 86.94362305 -185.859375 86.58984375 C-184.94091797 86.20570313 -184.02246094 85.8215625 -183.07617188 85.42578125 C-182.11388672 85.0390625 -181.15160156 84.65234375 -180.16015625 84.25390625 C-178.73413086 83.66222656 -178.73413086 83.66222656 -177.27929688 83.05859375 C-173.02392874 81.29816193 -168.74916584 79.58721833 -164.47265625 77.87890625 C-166.12672349 76.77619476 -167.79005747 75.685759 -169.48828125 74.65234375 C-179.59998394 68.32369067 -187.05399468 59.3466933 -190.06640625 47.5546875 C-190.34765625 45.62890625 -190.34765625 45.62890625 -190.47265625 42.87890625 C-179.86173205 40.30907305 -168.32517341 41.40813816 -157.9140625 44.22265625 C-155.57209424 44.96543477 -155.57209424 44.96543477 -153.47265625 44.87890625 C-153.80265625 43.82703125 -154.13265625 42.77515625 -154.47265625 41.69140625 C-155.93144481 35.92867413 -157.19438944 27.32237262 -154.47265625 21.87890625 C-151.22151138 22.93906219 -148.00590532 24.05269649 -144.80078125 25.24609375 C-134.50773141 29.07518412 -124.23840433 31.73834815 -113.47265625 33.87890625 C-113.52486328 32.96625 -113.52486328 32.96625 -113.578125 32.03515625 C-113.94390286 20.19092066 -111.94625252 8.44860939 -106.47265625 -2.12109375 C-97.16937515 -0.70250833 -89.57202711 6.08280154 -82.47265625 11.87890625 C-81.13460937 11.24662109 -81.13460937 11.24662109 -79.76953125 10.6015625 C-78.5990625 10.05371094 -77.42859375 9.50585938 -76.22265625 8.94140625 C-75.0625 8.39613281 -73.90234375 7.85085938 -72.70703125 7.2890625 C-68.28113438 5.35941423 -64.97804109 4.74027716 -60.16015625 4.75390625 C-59.185625 4.75261719 -58.21109375 4.75132812 -57.20703125 4.75 C-54.47265625 4.87890625 -54.47265625 4.87890625 -50.91015625 5.81640625 C-46.06862392 5.90443411 -43.90986087 3.58944303 -40.140625 0.73828125 C-27.39860513 -8.14195514 -13.5036332 -6.12250036 0 0 Z " fill="#050421" transform="translate(586.47265625,363.12109375)"/>
<path d="M0 0 C0.99821777 -0.00067474 1.99643555 -0.00134949 3.02490234 -0.00204468 C18.65833691 0.01469649 33.79704063 0.72494335 49.25 3.25 C50.42933105 3.43224121 51.60866211 3.61448242 52.82373047 3.80224609 C87.64303674 9.2059424 121.36486859 19.1394488 153.25 34.25 C154.15186035 34.67216797 155.0537207 35.09433594 155.98291016 35.52929688 C187.7928103 50.5238626 216.40144562 70.47816708 242.25 94.25 C243.89556862 95.70863203 245.54140772 97.16695895 247.1875 98.625 C255.38998795 106.01497735 263.12244389 113.81697572 270.25 122.25 C271.05824219 123.18070312 271.86648438 124.11140625 272.69921875 125.0703125 C289.06566067 144.00246548 302.73599381 164.61531841 315.25 186.25 C315.6507373 186.94254883 316.05147461 187.63509766 316.46435547 188.34863281 C331.27374202 214.29236508 342.10828707 243.26904895 349.25 272.25 C349.4572168 273.08869629 349.66443359 273.92739258 349.87792969 274.79150391 C356.72716075 303.07437257 359.48272943 331.5318393 359.5 360.5625 C359.50101212 362.09775833 359.50101212 362.09775833 359.50204468 363.66403198 C359.48589796 379.10587677 358.83639481 394.00192554 356.25 409.25 C355.87007042 411.67301685 355.49122559 414.09620395 355.11328125 416.51953125 C352.90139877 430.32139404 350.23280336 443.84896333 346.25 457.25 C346.05970215 457.90613281 345.8694043 458.56226563 345.67333984 459.23828125 C340.06284324 478.4963229 332.85570707 497.14163271 324.25 515.25 C323.87149902 516.05614746 323.49299805 516.86229492 323.10302734 517.69287109 C308.38056467 548.87608128 288.55047051 576.91019594 265.25 602.25 C263.81238617 603.8748993 262.37488903 605.49990184 260.9375 607.125 C257.45036725 610.99620506 253.86123519 614.74464586 250.1875 618.4375 C249.71723389 618.9123584 249.24696777 619.3872168 248.76245117 619.87646484 C193.87040115 674.53300753 119.20682195 706.72746006 43.25 717.25 C42.40872559 717.37004395 41.56745117 717.49008789 40.70068359 717.61376953 C2.05108188 722.87312519 -39.85165909 720.32544992 -77.75 711.25 C-78.79494629 711.00910645 -79.83989258 710.76821289 -80.91650391 710.52001953 C-111.38568416 703.4714048 -140.08680047 692.86217883 -167.75 678.25 C-168.51876465 677.84700684 -169.2875293 677.44401367 -170.07958984 677.02880859 C-195.55181406 663.60350747 -219.00749818 646.89399219 -240.2890625 627.4921875 C-241.91935555 626.00680939 -243.5599308 624.53263272 -245.2109375 623.0703125 C-254.30464369 615.00933004 -262.90259964 606.53471368 -270.75 597.25 C-271.55824219 596.31929687 -272.36648438 595.38859375 -273.19921875 594.4296875 C-284.41187586 581.45926053 -294.54050189 567.70879589 -303.75 553.25 C-304.11657715 552.67523926 -304.4831543 552.10047852 -304.86083984 551.50830078 C-325.64001786 518.61026613 -339.98558867 482.81159325 -349.75 445.25 C-350.05695801 444.09177734 -350.05695801 444.09177734 -350.37011719 442.91015625 C-352.71092223 434.00447565 -354.38459684 425.02238903 -355.875 415.9375 C-356.03379639 414.9784375 -356.19259277 414.019375 -356.35620117 413.03125 C-358.93895863 396.57551178 -360.08467714 380.26335307 -360.01074219 363.61376953 C-360.0000053 360.75141234 -360.01072686 357.8896824 -360.0234375 355.02734375 C-360.03194775 343.33845099 -359.33704747 331.88453916 -357.98083496 320.27655029 C-357.6938304 317.75687484 -357.46942471 315.23339407 -357.25 312.70703125 C-353.01300067 270.75408293 -338.34713153 229.35051499 -318.75 192.25 C-318.14551025 191.09685303 -318.14551025 191.09685303 -317.52880859 189.92041016 C-304.06864366 164.3820378 -287.30888248 140.89981447 -267.8515625 119.5703125 C-266.02717206 117.55602269 -264.25906198 115.50851386 -262.5 113.4375 C-254.93071285 104.75663921 -246.56393782 96.65435585 -237.75 89.25 C-236.821875 88.44433594 -235.89375 87.63867188 -234.9375 86.80859375 C-217.52722071 71.75260324 -198.68352521 58.72921091 -178.75 47.25 C-177.58549316 46.57348389 -177.58549316 46.57348389 -176.39746094 45.88330078 C-138.01177985 23.73540781 -95.58010701 9.81703489 -51.8125 3.375 C-50.75536804 3.21927017 -50.75536804 3.21927017 -49.67687988 3.06039429 C-33.1194368 0.66006496 -16.71031621 0.01020356 0 0 Z M-44.75 22.25 C-45.82830078 22.40065918 -46.90660156 22.55131836 -48.01757812 22.70654297 C-110.077347 31.72444071 -166.91773731 57.13560054 -215.75 96.25 C-216.63655273 96.95866211 -216.63655273 96.95866211 -217.54101562 97.68164062 C-226.781369 105.16391997 -235.20289593 113.50031492 -243.625 121.875 C-244.15947754 122.40411987 -244.69395508 122.93323975 -245.24462891 123.47839355 C-252.21782029 130.39849774 -258.66437619 137.52061811 -264.75 145.25 C-265.91118129 146.68642192 -267.07262107 148.12263494 -268.234375 149.55859375 C-280.1950131 164.59163987 -290.62200038 180.50267337 -299.74560547 197.40576172 C-300.70596669 199.16914739 -301.69798872 200.91517938 -302.69140625 202.66015625 C-320.93119603 235.34438562 -331.84128438 272.2326504 -337.625 309.0625 C-337.82826904 310.35414063 -338.03153809 311.64578125 -338.2409668 312.9765625 C-340.62430982 329.0127761 -340.99009474 344.94634988 -341 361.125 C-341.00067474 362.12199921 -341.00134949 363.11899841 -341.00204468 364.14620972 C-340.98678577 378.37506756 -340.61432986 392.26960514 -338.24169922 406.33154297 C-337.70640908 409.50873178 -337.23111049 412.69250213 -336.75390625 415.87890625 C-327.5379587 474.56298962 -301.74579868 529.06269854 -264.75 575.25 C-264.27755859 575.84103516 -263.80511719 576.43207031 -263.31835938 577.04101562 C-255.83608003 586.281369 -247.49968508 594.70289593 -239.125 603.125 C-238.59588013 603.65947754 -238.06676025 604.19395508 -237.52160645 604.74462891 C-230.60150226 611.71782029 -223.47938189 618.16437619 -215.75 624.25 C-214.31357808 625.41118129 -212.87736506 626.57262107 -211.44140625 627.734375 C-151.66031782 675.31305043 -77.4607817 700.54462478 -1.25 700.4375 C-0.31914581 700.43623108 0.61170837 700.43496216 1.57077026 700.43365479 C71.64244862 700.2517578 140.28716873 678.40381905 197.25 637.25 C198.34296387 636.46230225 198.34296387 636.46230225 199.45800781 635.65869141 C206.89695094 630.26570817 214.12265076 624.76269024 220.84375 618.48046875 C222.80138277 616.66584487 224.7902203 614.92724905 226.81640625 613.19140625 C231.80913056 608.83542001 236.50306484 604.18300192 241.18579102 599.49951172 C242.67641615 598.01106763 244.17487017 596.53082723 245.67382812 595.05078125 C251.98263931 588.7786458 257.72670944 582.2365214 263.25 575.25 C264.15497167 574.15021534 265.0620594 573.05216294 265.97265625 571.95703125 C279.16304801 555.63970188 290.57952965 537.85799278 300.25 519.25 C300.59434082 518.59692871 300.93868164 517.94385742 301.29345703 517.27099609 C333.20732536 456.53562949 346.91933336 384.43363044 337.25 316.25 C337.09934082 315.17314941 336.94868164 314.09629883 336.79345703 312.98681641 C327.66033075 250.12528924 301.34485911 185.58501893 257.48046875 138.65625 C255.66584487 136.69861723 253.92724905 134.7097797 252.19140625 132.68359375 C247.83542001 127.69086944 243.18300192 122.99693516 238.49951172 118.31420898 C237.01106763 116.82358385 235.53082723 115.32512983 234.05078125 113.82617188 C227.7786458 107.51736069 221.2365214 101.77329056 214.25 96.25 C213.15021534 95.34502833 212.05216294 94.4379406 210.95703125 93.52734375 C194.63970188 80.33695199 176.85799278 68.92047035 158.25 59.25 C157.59692871 58.90565918 156.94385742 58.56131836 156.27099609 58.20654297 C151.64805698 55.77738384 146.97540778 53.47295662 142.25 51.25 C141.52135742 50.90646484 140.79271484 50.56292969 140.04199219 50.20898438 C114.95964896 38.55714425 88.3854501 30.40282667 61.25 25.25 C59.99775635 25.0034668 59.99775635 25.0034668 58.72021484 24.75195312 C53.58233079 23.7499636 48.44021062 22.92880702 43.25 22.25 C42.48623047 22.14703613 41.72246094 22.04407227 40.93554688 21.93798828 C13.19145438 18.39440262 -17.04757005 18.34386152 -44.75 22.25 Z " fill="#BEB455" transform="translate(548.75,170.75)"/>
<path d="M0 0 C1.46663086 -0.01522705 1.46663086 -0.01522705 2.96289062 -0.03076172 C9.27449347 0.04498605 14.52906986 1.04945664 20.375 3.4375 C15.45661203 13.27427594 8.04606793 19.41417831 -1.625 24.4375 C-2.54152344 24.94990234 -2.54152344 24.94990234 -3.4765625 25.47265625 C-10.99690224 29.03405062 -21.18405119 28.5888571 -29.10546875 26.53515625 C-31.67439579 25.60130308 -34.15649911 24.60899195 -36.625 23.4375 C-35.52307431 16.04434738 -30.3992333 10.29241304 -24.61328125 5.7578125 C-16.81038563 0.57632189 -9.15516136 0.06821379 0 0 Z " fill="#BDB353" transform="translate(579.625,416.5625)"/>
<path d="M0 0 C1.18529297 0.01353516 1.18529297 0.01353516 2.39453125 0.02734375 C3.28205078 0.04474609 3.28205078 0.04474609 4.1875 0.0625 C5.01060278 9.11663063 1.71598641 18.34230034 -4.0546875 25.31640625 C-13.12633714 34.32757822 -24.51346818 37.15362552 -36.95703125 37.1953125 C-38.8125 37.0625 -38.8125 37.0625 -39.8125 36.0625 C-40.8507543 28.27559275 -37.39787 20.68630018 -32.92578125 14.41796875 C-24.77121942 5.32887304 -12.21465464 -0.18230828 0 0 Z " fill="#BCB253" transform="translate(626.8125,436.9375)"/>
<path d="M0 0 C13.89159592 0.92610639 25.73521425 5.89971159 35.4296875 16 C40.19760306 22.07256907 43.15310823 28.98580003 43.0625 36.6875 C43.05347656 37.68136719 43.04445313 38.67523438 43.03515625 39.69921875 C43.02355469 40.45847656 43.01195312 41.21773438 43 42 C31.05924977 41.70940652 20.6432664 37.24726017 12 29 C4.44168141 20.87221905 0.26424602 11.07431039 0 0 Z " fill="#BDB353" transform="translate(448,399)"/>
<path d="M0 0 C5.30424652 1.76808217 7.37764837 7.29464566 10 12 C14.12927043 20.50313179 14.35906226 29.76028447 11.375 38.6875 C8.55415069 45.60958413 4.63607606 52.01424041 -1 57 C-6.70101603 55.09966132 -9.17843475 49.55814099 -11.8125 44.5625 C-15.13949164 34.63921858 -13.72301063 23.46533431 -9.64453125 14.0625 C-6.9246495 8.99744704 -3.60650373 4.46562124 0 0 Z " fill="#BDB353" transform="translate(532,384)"/>
<path d="M0 0 C10.53549024 4.85428838 18.44775343 13.36913973 23.875 23.5 C27.27512542 33.82253645 25.55431375 45.40341031 21 55 C13.00842872 53.45838869 6.57225776 46.38259332 2 40 C-3.65270386 29.75661542 -4.79204724 17.3038468 -2.328125 5.88671875 C-1.5 3.4375 -1.5 3.4375 0 0 Z " fill="#BDB353" transform="translate(488,376)"/>
<path d="M0 0 C-1.2740324 6.37016201 -5.11739342 10.04002643 -10 14 C-22.43434823 22.03979845 -36.97017349 22.51896474 -51.171875 19.6328125 C-53 19 -53 19 -54 17 C-40.70138386 -1.18959654 -21.86791661 -9.87583331 0 0 Z " fill="#BCB253" transform="translate(521,447)"/>
<path d="M0 0 C2.739137 10.61415587 0.64872223 21.78438509 -4.6875 31.25 C-8.77401573 37.56275192 -14.08631753 43.74650237 -21 47 C-21.66 47 -22.32 47 -23 47 C-26.52043684 37.10924888 -28.47067265 24.80531786 -24.25 14.8125 C-23.5423533 13.51760483 -22.79670551 12.24208602 -22 11 C-21.4225 10.0925 -20.845 9.185 -20.25 8.25 C-15.3344132 3.3344132 -7.1796201 -2.76139234 0 0 Z " fill="#BCB253" transform="translate(626,499)"/>
<path d="M0 0 C1.36125 0.86625 1.36125 0.86625 2.75 1.75 C0.17964842 8.33472089 -7.15405272 11.38682937 -13.29296875 14.08984375 C-24.24883951 18.07250828 -32.67825378 17.66672595 -43.25 12.75 C-46.01282033 11.20928029 -48.65783739 9.5622856 -51.25 7.75 C-48.55366028 1.49449186 -42.67579623 -1.80580211 -36.6875 -4.625 C-24.31815009 -9.14712793 -11.17326064 -6.25702596 0 0 Z " fill="#BCB253" transform="translate(690.25,489.25)"/>
<path d="M0 0 C3.00676674 1.05660784 3.95343377 1.92518868 5.66796875 4.6796875 C6.42013672 6.26136719 6.42013672 6.26136719 7.1875 7.875 C7.69667969 8.92429687 8.20585938 9.97359375 8.73046875 11.0546875 C12.01359194 18.67153331 11.5795425 25.63211808 9.05078125 33.41015625 C6.4799323 39.74648657 2.67193285 45.99435766 -2 51 C-2.66 51 -3.32 51 -4 51 C-11.28784102 40.53232269 -14.54794058 30.7807837 -13 18 C-10.44725696 10.17824998 -6.6411456 4.78162483 0 0 Z " fill="#BCB253" transform="translate(637,513)"/>
<path d="M0 0 C-1.79576796 3.82506628 -3.85356154 6.12134354 -7 9 C-7.61746094 9.57234375 -8.23492188 10.1446875 -8.87109375 10.734375 C-16.20331101 17.03066432 -24.85935432 20.52288044 -34.625 20.0625 C-40.57050185 19.23941138 -45.7240425 16.76554059 -51 14 C-48.43526985 6.51098795 -42.61006033 2.63621431 -35.75 -0.875 C-23.99163056 -6.5295025 -11.86965417 -4.4166155 0 0 Z " fill="#BCB253" transform="translate(662,466)"/>
<path d="M0 0 C0.81674796 1.74802146 1.62823451 3.49850189 2.4375 5.25 C3.11619141 6.71179688 3.11619141 6.71179688 3.80859375 8.203125 C7.44683374 16.74404248 6.43033236 24.4525766 3.3359375 33.06640625 C1.24418508 37.65969885 -1.61960445 41.28611251 -5 45 C-5.73863281 45.82371094 -5.73863281 45.82371094 -6.4921875 46.6640625 C-7.8125 48.0625 -7.8125 48.0625 -10 50 C-10.66 50 -11.32 50 -12 50 C-16.53777434 38.72038951 -19.68914381 27.58570277 -15.92578125 15.5703125 C-13.01768308 9.18046391 -7.87163662 0 0 0 Z " fill="#BCB353" transform="translate(538,449)"/>
<path d="M0 0 C6.60591163 4.95961077 12.06854535 10.29724874 15.4921875 17.87109375 C12.78069902 20.58258223 5.4288272 19.99532389 1.6796875 20.12109375 C-8.19100303 19.98463259 -17.33175489 16.91176153 -24.44921875 9.98046875 C-27.83226451 6.27960031 -30.77547331 2.63502652 -32.5078125 -2.12890625 C-32.1953125 -4.50390625 -32.1953125 -4.50390625 -31.5078125 -6.12890625 C-20.30621667 -8.92930521 -9.58166879 -6.13777825 0 0 Z " fill="#BBB253" transform="translate(685.5078125,520.12890625)"/>
<path d="M0 0 C7.46657457 0.86820635 12.91161654 4.51186753 17.87109375 10.11328125 C24.79752668 19.83792399 25.45451143 29.31737291 25 41 C22 42 22 42 19.58203125 41.1015625 C9.74410889 35.85652068 3.05985552 29.65415035 -0.38671875 18.84375 C-1.76440114 12.45551571 -1.39831095 6.343557 0 0 Z " fill="#BCB253" transform="translate(652,535)"/>
<path d="M0 0 C0.66 0 1.32 0 2 0 C8.4683291 8.89395251 11.10851641 17.02568755 10 28 C8.29335474 34.74900626 4.88806071 41.00766066 0 46 C-1.485 46.495 -1.485 46.495 -3 47 C-9.14561572 36.48674544 -13.00753377 27.32368426 -9.9375 15.0625 C-8.03759807 9.13333746 -4.3774389 4.3774389 0 0 Z " fill="#BCB253" transform="translate(560,462)"/>
<path d="M0 0 C1.03253906 0.01353516 1.03253906 0.01353516 2.0859375 0.02734375 C3.76577838 0.05067487 5.44543746 0.08653674 7.125 0.125 C8.05290397 2.64773893 8.20950301 3.86224844 7.375 6.45703125 C2.91307269 15.31116826 -2.40947456 21.62381122 -11.875 25.125 C-17.6053762 26.88432603 -22.90270457 27.34217438 -28.875 27.125 C-30.02680945 24.29967916 -29.9045946 23.20588449 -28.8359375 20.28515625 C-23.55021606 9.96107471 -23.55021606 9.96107471 -18.875 6.125 C-17.6684375 5.0421875 -17.6684375 5.0421875 -16.4375 3.9375 C-11.2567851 0.2730919 -6.1925529 -0.15601393 0 0 Z " fill="#BBB253" transform="translate(599.875,484.875)"/>
<path d="M0 0 C-2.06497941 5.91426141 -5.44580064 8.86907063 -10.74609375 12.046875 C-21.47876565 16.94005015 -33.49767632 13.86274534 -44 10 C-44.99 9.67 -45.98 9.34 -47 9 C-44.32624174 2.53841753 -37.44424946 -0.51291246 -31.375 -3.375 C-20.47957174 -7.3908888 -9.84146485 -5.72891925 0 0 Z " fill="#BCB253" transform="translate(467,443)"/>
<path d="M0 0 C13.50563677 -0.45753098 25.12344611 -0.08139451 36 9 C39.47905124 12.3838351 42.06735934 15.14602927 43 20 C37.03402916 23.67362736 28.76934481 22.87065088 22.17578125 21.34765625 C12.02206091 17.63365807 5.12466266 10.68481103 -1 2 C-0.67 1.34 -0.34 0.68 0 0 Z " fill="#BCB253" transform="translate(416,412)"/>
<path d="M0 0 C3.98066095 1.57724302 5.60667274 2.41000911 8 6 C8.73112918 12.82387234 7.18650381 18.91220414 4 25 C1.17022274 27.67839 0.14140864 27.98403451 -3.875 28.4375 C-8.14255061 28.28594213 -10.70519103 26.73228061 -14 24 C-16.12889289 19.74221421 -15.48909901 14.75872908 -14.24609375 10.2890625 C-11.37104463 2.59971543 -8.78000087 -0.90827595 0 0 Z " fill="#F4F4F6" transform="translate(464,784)"/>
<path d="M0 0 C3.12212301 3.29319825 2.88840448 5.30755044 2.78125 9.78125 C2.7709375 11.06773437 2.760625 12.35421875 2.75 13.6796875 C2.25719865 17.59745823 1.36640984 20.07196139 -0.71875 23.40625 C-4.99457183 26.25679789 -8.7069643 26.11651899 -13.71875 25.40625 C-16.84375 23.78125 -16.84375 23.78125 -18.71875 20.40625 C-19.62251777 13.14066593 -19.84670682 5.6693569 -15.71875 -0.59375 C-10.80446266 -3.96354704 -4.88197558 -2.86184775 0 0 Z " fill="#F8F8F9" transform="translate(530.71875,798.59375)"/>
<path d="M0 0 C3.44827586 12.28448276 3.44827586 12.28448276 0.5 17.8125 C-4.27296062 21.98884054 -10.77170098 22.5590248 -16.953125 22.3671875 C-19 22 -19 22 -21.9375 20.0625 C-25.33991087 15.01043538 -26 10.01447549 -26 4 C-22.79363027 3.32364936 -19.58463311 2.66067552 -16.375 2 C-15.47136719 1.80921875 -14.56773437 1.6184375 -13.63671875 1.421875 C-9.01796444 0.47789602 -4.74352828 -0.25214768 0 0 Z " fill="#F6F6F7" transform="translate(837,474)"/>
<path d="M0 0 C4.66250426 2.29510868 7.82475389 7.0054075 11.015625 10.9921875 C9.42654975 15.14143954 6.38030201 17.67626944 3.140625 20.5546875 C2.61082031 21.03615234 2.08101563 21.51761719 1.53515625 22.01367188 C-1.20669474 24.48678065 -3.98361149 26.83946585 -6.984375 28.9921875 C-11.50881353 26.98023544 -14.28386483 24.10922295 -16.984375 19.9921875 C-18.63272665 14.1744758 -18.63272665 14.1744758 -16.921875 11.0546875 C-14.22225012 9.57424805 -12.00867481 9.79056751 -8.984375 9.9921875 C-9.066875 8.8990625 -9.149375 7.8059375 -9.234375 6.6796875 C-8.984375 2.9921875 -8.984375 2.9921875 -7.421875 0.9921875 C-4.81753569 -0.0762594 -2.79903303 -0.49895806 0 0 Z " fill="#F5F5F7" transform="translate(344.984375,706.0078125)"/>
<path d="M0 0 C3.4375 0.6875 3.4375 0.6875 5.6875 3 C7.36441702 5.98739993 8.17585696 9.11739759 9.046875 12.41796875 C9.30952148 13.40563232 9.57216797 14.3932959 9.84277344 15.41088867 C10.0390332 16.16217041 10.23529297 16.91345215 10.4375 17.6875 C6.48078884 19.0256816 2.52187472 20.357222 -1.4375 21.6875 C-2.56542969 22.0690625 -3.69335938 22.450625 -4.85546875 22.84375 C-5.93183594 23.2046875 -7.00820313 23.565625 -8.1171875 23.9375 C-9.11218262 24.27265625 -10.10717773 24.6078125 -11.13232422 24.953125 C-13.5625 25.6875 -13.5625 25.6875 -15.5625 25.6875 C-19.29283708 14.65191948 -19.29283708 14.65191948 -18.5625 8.6875 C-17.5 6.75 -17.5 6.75 -15.5625 5.6875 C-13.891875 5.749375 -13.891875 5.749375 -12.1875 5.8125 C-8.40105863 6.09465717 -8.40105863 6.09465717 -6.0625 3.1875 C-3.5625 0.6875 -3.5625 0.6875 0 0 Z " fill="#F5F5F6" transform="translate(284.5625,601.3125)"/>
<path d="M0 0 C5.07634826 1.7989503 9.63713611 4.49026455 14.3125 7.125 C15.14845703 7.59292969 15.98441406 8.06085938 16.84570312 8.54296875 C18.89866233 9.6926259 20.95002202 10.84503802 23 12 C22.67 13.65 22.34 15.3 22 17 C21.27554688 16.60167969 20.55109375 16.20335937 19.8046875 15.79296875 C14.90866547 13.10994868 10.02081186 10.44255712 5 8 C5.53109375 8.51949219 6.0621875 9.03898437 6.609375 9.57421875 C15.1207711 17.97689263 15.1207711 17.97689263 17 21 C16.58984375 23.64453125 16.58984375 23.64453125 16 26 C15.28714844 25.86722656 14.57429688 25.73445313 13.83984375 25.59765625 C12.88207031 25.42105469 11.92429687 25.24445313 10.9375 25.0625 C9.52791016 24.80146484 9.52791016 24.80146484 8.08984375 24.53515625 C4.73776245 23.95458085 1.3677955 23.48111364 -2 23 C4.93 26.96 4.93 26.96 12 31 C11.67 32.32 11.34 33.64 11 35 C5.48431813 33.46688715 0.97965148 30.81247556 -3.875 27.875 C-4.65875 27.40707031 -5.4425 26.93914062 -6.25 26.45703125 C-8.16982472 25.30981892 -10.08630561 24.1573993 -12 23 C-11.1875 20.5625 -11.1875 20.5625 -10 18 C-6.81579155 16.93859718 -5.91540891 17.04107451 -2.76953125 17.77734375 C-1.96708984 17.96103516 -1.16464844 18.14472656 -0.33789062 18.33398438 C0.49548828 18.53314453 1.32886719 18.73230469 2.1875 18.9375 C3.03248047 19.13279297 3.87746094 19.32808594 4.74804688 19.52929688 C6.833693 20.01241264 8.91707614 20.50527904 11 21 C9.96125445 19.7891546 8.91881031 18.58148205 7.875 17.375 C7.24335938 16.64410156 6.61171875 15.91320312 5.9609375 15.16015625 C4.22233498 13.24492279 2.42077041 11.53938983 0.5 9.8125 C-2 7 -2 7 -1.9375 4.25 C-1.33867903 2.81282966 -0.69628229 1.39256458 0 0 Z " fill="#F4F4F6" transform="translate(298,375)"/>
<path d="M0 0 C2.375 0.9375 2.375 0.9375 4 3 C4.49055218 6.77241538 4.72482191 10.55035617 3 14 C3.639375 14.309375 4.27875 14.61875 4.9375 14.9375 C7 16 7 16 8 17 C8.3125 20.375 8.3125 20.375 8 24 C5.77728061 26.65016543 4.3541854 26.94940209 0.9375 27.4375 C-2 27 -2 27 -3.875 25.3125 C-5.19658337 22.59591195 -5.38288143 20.98647515 -5 18 C-4.34 17.01 -3.68 16.02 -3 15 C-4.98 14.34 -6.96 13.68 -9 13 C-9 14.65 -9 16.3 -9 18 C-9.99 18.33 -10.98 18.66 -12 19 C-12.17015625 18.38511719 -12.3403125 17.77023437 -12.515625 17.13671875 C-13.9672897 12.02672252 -13.9672897 12.02672252 -17.1875 7.9375 C-17.785625 7.628125 -18.38375 7.31875 -19 7 C-18.2575 6.71125 -17.515 6.4225 -16.75 6.125 C-13.5372728 4.81070251 -10.76029591 3.65892312 -8.125 1.375 C-5.22711842 -0.50009985 -3.39144777 -0.42393097 0 0 Z " fill="#F5F5F6" transform="translate(679,766)"/>
<path d="M0 0 C2.90799783 2.5444981 3.90702057 3.95398137 4.25 7.8125 C4.1675 8.534375 4.085 9.25625 4 10 C4.5775 10.226875 5.155 10.45375 5.75 10.6875 C8.62887527 12.36684391 10.17447619 14.22790829 12 17 C11.67 17.99 11.34 18.98 11 20 C10.01 20.33 9.02 20.66 8 21 C6.35 18.69 4.7 16.38 3 14 C-0.54518884 15.39759905 -0.54518884 15.39759905 -4 17 C-2.66511872 20.59391114 -1.03977277 23.75490696 1 27 C-0.98 27.99 -0.98 27.99 -3 29 C-4.75474499 26.64924679 -6.50382845 24.29460943 -8.25 21.9375 C-8.74113281 21.28072266 -9.23226563 20.62394531 -9.73828125 19.94726562 C-12.82265057 15.77308581 -15.51182198 11.55573548 -18 7 C-7.3838836 -1.52770006 -7.3838836 -1.52770006 0 0 Z " fill="#F1F1F3" transform="translate(390,288)"/>
<path d="M0 0 C8.61703042 2.31139169 16.76688023 5.60795466 25 9 C21.1369863 21.57534247 21.1369863 21.57534247 16 25 C10.55338903 24.80194142 8.72285659 23.72285659 5 20 C2.67968195 19.58565749 0.34360915 19.25110098 -2 19 C-4.4375 17.9375 -4.4375 17.9375 -6 17 C-5.67 15.68 -5.34 14.36 -5 13 C-1.7 13.66 1.6 14.32 5 15 C5.99 12.36 6.98 9.72 8 7 C7.2575 6.87625 6.515 6.7525 5.75 6.625 C3.19858515 6.04513299 1.2732427 5.26291261 -1 4 C-0.67 2.68 -0.34 1.36 0 0 Z " fill="#F5F5F6" transform="translate(800,619)"/>
<path d="M0 0 C4.41726132 1.62853249 7.01593455 5.01712284 10.0625 8.4375 C11.11542321 9.60328221 12.16879446 10.76865995 13.22265625 11.93359375 C13.68422119 12.44978271 14.14578613 12.96597168 14.62133789 13.49780273 C16.01025676 15.04925723 16.01025676 15.04925723 17.67358398 16.56665039 C19 18 19 18 19 20 C16.83984375 22.19921875 16.83984375 22.19921875 13.9375 24.6875 C12.52791016 25.93080078 12.52791016 25.93080078 11.08984375 27.19921875 C8 29 8 29 4.25 28.87890625 C1 28 1 28 -0.9375 26.25 C-2.16717908 23.64597372 -2.23723981 21.84687774 -2 19 C-2.721875 18.938125 -3.44375 18.87625 -4.1875 18.8125 C-7.84657625 17.75543353 -9.49211602 15.79449929 -12 13 C-11.34 11.68 -10.68 10.36 -10 9 C-7.69 10.98 -5.38 12.96 -3 15 C0.65316671 13.75023244 1.78065836 13.32901247 4 10 C2.02 7.36 0.04 4.72 -2 2 C-1.34 1.34 -0.68 0.68 0 0 Z " fill="#F4F4F6" transform="translate(736,720)"/>
<path d="M0 0 C0.99 0.33 1.98 0.66 3 1 C3.9831543 3.19311523 3.9831543 3.19311523 4.82421875 6.05859375 C5.13037109 7.08404297 5.43652344 8.10949219 5.75195312 9.16601562 C6.21504883 10.78540039 6.21504883 10.78540039 6.6875 12.4375 C7.16799805 14.05108398 7.16799805 14.05108398 7.65820312 15.69726562 C10 23.65138593 10 23.65138593 10 26 C-2.42141141 29.97575013 -2.42141141 29.97575013 -8 28 C-10.40509576 24.76815258 -11.01636496 22.83461278 -10.9375 18.8125 C-9.83301535 15.49904604 -9.01711423 14.67617457 -6 13 C-4.35202764 12.28837557 -2.68834592 11.60968047 -1 11 C-1.33 7.7 -1.66 4.4 -2 1 C-1.34 0.67 -0.68 0.34 0 0 Z " fill="#F0F0F3" transform="translate(633,784)"/>
<path d="M0 0 C0.66 1.65 1.32 3.3 2 5 C-4.64345996 11.78186537 -11.3467184 18.35718311 -19 24 C-19.6875 21.6875 -19.6875 21.6875 -20 19 C-19 18 -18 17 -17 16 C-17.18828772 13.55519921 -17.18828772 13.55519921 -18 11 C-18.33333333 9.33333333 -18.66666667 7.66666667 -19 6 C-21.64 6 -24.28 6 -27 6 C-27.33 4.35 -27.66 2.7 -28 1 C-18.62895894 0.11504503 -9.40228594 -0.1170409 0 0 Z " fill="#EFEFF2" transform="translate(818,414)"/>
<path d="M0 0 C1.32 0.33 2.64 0.66 4 1 C1.49415892 9.40193774 -2.21025857 17.11941439 -6 25 C-9.59844237 24.44107963 -12.14009659 23.54891189 -15.1875 21.5625 C-16.19876953 20.91474609 -16.19876953 20.91474609 -17.23046875 20.25390625 C-19 19 -19 19 -21 17 C-21.4938221 13.29633426 -21.23236378 11.42754936 -19.4375 8.125 C-17 6 -17 6 -13.625 5.5625 C-10.15473014 5.98132567 -7.24846248 6.73230733 -4 8 C-2.68 5.36 -1.36 2.72 0 0 Z " fill="#F6F6F7" transform="translate(441,777)"/>
<path d="M0 0 C0.890625 2.609375 0.890625 2.609375 1 6 C-0.7127597 8.49995267 -2.93410925 10.31766349 -5.25 12.25 C-5.84941406 12.77851563 -6.44882812 13.30703125 -7.06640625 13.8515625 C-9.63665767 16.09697062 -12.15341201 18.10227468 -15 20 C-8.64549677 18.75297849 -2.31672565 17.42635741 4 16 C4.33 17.32 4.66 18.64 5 20 C1.23354751 21.20171801 -2.53875382 22.38390586 -6.3125 23.5625 C-7.9202832 24.07586914 -7.9202832 24.07586914 -9.56054688 24.59960938 C-10.58857422 24.91865234 -11.61660156 25.23769531 -12.67578125 25.56640625 C-13.62364502 25.86490479 -14.57150879 26.16340332 -15.5480957 26.47094727 C-18 27 -18 27 -21 26 C-21.890625 23.8828125 -21.890625 23.8828125 -22 21 C-20.2449399 18.5974267 -18.01889005 16.78238975 -15.75 14.875 C-14.5571279 13.83091625 -13.3644145 12.78665114 -12.171875 11.7421875 C-11.6365918 11.2869873 -11.10130859 10.83178711 -10.54980469 10.36279297 C-8.9645835 8.96885714 -7.47697777 7.50744805 -6 6 C-7.20398438 6.3609375 -8.40796875 6.721875 -9.6484375 7.09375 C-11.22391596 7.5626424 -12.79943912 8.03138463 -14.375 8.5 C-15.1690625 8.73847656 -15.963125 8.97695313 -16.78125 9.22265625 C-17.54179688 9.44824219 -18.30234375 9.67382812 -19.0859375 9.90625 C-20.1385376 10.22045898 -20.1385376 10.22045898 -21.21240234 10.54101562 C-23 11 -23 11 -25 11 C-25.33 9.68 -25.66 8.36 -26 7 C-5.7 0 -5.7 0 0 0 Z " fill="#F7F7F8" transform="translate(828,440)"/>
<path d="M0 0 C2.31 0.33 4.62 0.66 7 1 C7.33 10.24 7.66 19.48 8 29 C6.35 28.67 4.7 28.34 3 28 C3 25.69 3 23.38 3 21 C2.113125 20.87625 1.22625 20.7525 0.3125 20.625 C-2.70387502 20.05587264 -5.20326054 19.23385564 -8 18 C-8.2475 18.639375 -8.495 19.27875 -8.75 19.9375 C-10 22 -10 22 -12.125 22.75 C-13.053125 22.87375 -13.053125 22.87375 -14 23 C-14 18.55769289 -13.50752486 17.84922928 -10.9375 14.453125 C-10.30585937 13.60878906 -9.67421875 12.76445312 -9.0234375 11.89453125 C-8.35570312 11.02183594 -7.68796875 10.14914062 -7 9.25 C-6.33226562 8.36183594 -5.66453125 7.47367187 -4.9765625 6.55859375 C-3.32609881 4.36583485 -1.66708554 2.18013238 0 0 Z " fill="#F3F3F5" transform="translate(631,250)"/>
<path d="M0 0 C2.31 0 4.62 0 7 0 C8.34208754 3.10045423 9.67213754 6.20592989 11 9.3125 C11.3815625 10.19357422 11.763125 11.07464844 12.15625 11.98242188 C12.5171875 12.82998047 12.878125 13.67753906 13.25 14.55078125 C13.58515625 15.33106689 13.9203125 16.11135254 14.265625 16.9152832 C15 19 15 19 15 22 C15.66 22 16.32 22 17 22 C17 15.07 17 8.14 17 1 C18.32 1 19.64 1 21 1 C21 9.58 21 18.16 21 27 C18.69 27 16.38 27 14 27 C13.06126309 24.97974095 12.12407197 22.9587636 11.1875 20.9375 C10.66542969 19.81214844 10.14335938 18.68679687 9.60546875 17.52734375 C8.01876719 14.04123302 6.50879781 10.52052823 5 7 C4.67 13.6 4.34 20.2 4 27 C2.68 27 1.36 27 0 27 C0 18.09 0 9.18 0 0 Z " fill="#F7F6F8" transform="translate(545,236)"/>
<path d="M0 0 C2 2 2 2 2 5 C0.02 5.99 0.02 5.99 -2 7 C-2 10.63 -2 14.26 -2 18 C0.31 18.33 2.62 18.66 5 19 C5 20.32 5 21.64 5 23 C-20.44992051 21.55007949 -20.44992051 21.55007949 -23 19 C-23.2890625 16.61328125 -23.2890625 16.61328125 -23 14 C-21.5234375 12.48046875 -21.5234375 12.48046875 -19.375 11.1875 C-18.56933594 10.69378906 -17.76367188 10.20007813 -16.93359375 9.69140625 C-15.48146484 8.85416016 -15.48146484 8.85416016 -14 8 C-13.40590332 7.65437012 -12.81180664 7.30874023 -12.19970703 6.95263672 C-8.15239372 4.60021973 -4.08364642 2.28870084 0 0 Z " fill="#F3F3F5" transform="translate(282,569)"/>
<path d="M0 0 C0.99 0.66 1.98 1.32 3 2 C2.4740625 3.11375 2.4740625 3.11375 1.9375 4.25 C0.92506837 7.21979944 0.81087959 8.16440518 2 11 C2.98731742 12.34275169 3.98594743 13.67732273 5 15 C5 15.66 5 16.32 5 17 C8.96 16.505 8.96 16.505 13 16 C13.33 17.32 13.66 18.64 14 20 C9.87617911 21.17086263 5.75075687 22.33597927 1.625 23.5 C0.449375 23.83386719 -0.72625 24.16773438 -1.9375 24.51171875 C-3.05898438 24.82753906 -4.18046875 25.14335938 -5.3359375 25.46875 C-6.37282715 25.76201172 -7.4097168 26.05527344 -8.47802734 26.35742188 C-11 27 -11 27 -13 27 C-14.35546875 25.06640625 -14.35546875 25.06640625 -15 22 C-13.52158052 18.69869801 -11.42171247 15.86394373 -9.3125 12.9375 C-8.75626953 12.13505859 -8.20003906 11.33261719 -7.62695312 10.50585938 C-5.15217616 6.95150151 -2.60858855 3.45726488 0 0 Z " fill="#F5F5F7" transform="translate(323,678)"/>
<path d="M0 0 C1.30038347 4.34955849 0.69019147 6.49950255 -1.30859375 10.51953125 C-1.80810547 11.54111328 -2.30761719 12.56269531 -2.82226562 13.61523438 C-3.35529297 14.67033203 -3.88832031 15.72542969 -4.4375 16.8125 C-4.96666016 17.88693359 -5.49582031 18.96136719 -6.04101562 20.06835938 C-7.34846894 22.71860257 -8.66839527 25.36183143 -10 28 C-10.99 27.34 -11.98 26.68 -13 26 C-12.690625 24.80375 -12.38125 23.6075 -12.0625 22.375 C-11.70392573 19.58608901 -11.71281661 18.43427732 -13.28125 16.0625 C-15.12410464 14.31663771 -16.69399266 13.06709359 -19 12 C-22.40125706 12.43637654 -22.40125706 12.43637654 -25 14 C-25.66 12.68 -26.32 11.36 -27 10 C-23.25933545 8.12654604 -19.50615406 6.27967592 -15.75 4.4375 C-14.68652344 3.90447266 -13.62304688 3.37144531 -12.52734375 2.82226562 C-11.50253906 2.32275391 -10.47773437 1.82324219 -9.421875 1.30859375 C-8.47924805 0.84251709 -7.53662109 0.37644043 -6.56542969 -0.10375977 C-3.81534174 -1.06451089 -2.67282111 -1.03668061 0 0 Z " fill="#F5F5F7" transform="translate(754,320)"/>
<path d="M0 0 C1.98 0 3.96 0 6 0 C7.6514016 3.58079286 9.29514479 7.16505002 10.9375 10.75 C11.64036133 12.27367187 11.64036133 12.27367187 12.35742188 13.828125 C12.80537109 14.8078125 13.25332031 15.7875 13.71484375 16.796875 C14.12855225 17.69760742 14.54226074 18.59833984 14.96850586 19.52636719 C15.86987367 21.68794321 16.51271342 23.71511557 17 26 C14.625 25.75 14.625 25.75 12 25 C11.34 23.68 10.68 22.36 10 21 C6.37 21 2.74 21 -1 21 C-1.33 23.31 -1.66 25.62 -2 28 C-3.65 28 -5.3 28 -7 28 C-4.83322193 18.61796092 -2.64080064 9.2628083 0 0 Z " fill="#F5F5F6" transform="translate(518,238)"/>
<path d="M0 0 C7.63655648 3.35263455 14.00348854 11.46832849 19 18 C19.33 18.99 19.66 19.98 20 21 C19.34 21.99 18.68 22.98 18 24 C8.59337993 23.3972149 -0.67344131 22.32867987 -10 21 C-9.67 19.68 -9.34 18.36 -9 17 C-6.36 17 -3.72 17 -1 17 C-0.31974363 15.00458132 0.34490497 13.00382009 1 11 C1.268125 10.278125 1.53625 9.55625 1.8125 8.8125 C1.874375 8.214375 1.93625 7.61625 2 7 C1.505 6.505 1.01 6.01 0.5 5.5 C0.005 5.005 -0.49 4.51 -1 4 C-0.6875 1.8125 -0.6875 1.8125 0 0 Z " fill="#F7F7F8" transform="translate(789,646)"/>
<path d="M0 0 C4.875 0.875 4.875 0.875 6 2 C6.08713831 3.70772358 6.10700007 5.41898649 6.09765625 7.12890625 C6.09443359 8.16337891 6.09121094 9.19785156 6.08789062 10.26367188 C6.07951172 11.35228516 6.07113281 12.44089844 6.0625 13.5625 C6.05798828 14.65498047 6.05347656 15.74746094 6.04882812 16.87304688 C6.03699826 19.58208495 6.02051543 22.29101599 6 25 C6.66 25 7.32 25 8 25 C8.10183594 24.31550781 8.20367188 23.63101562 8.30859375 22.92578125 C9.13769992 19.41730374 10.5172232 16.44244474 12.0625 13.1875 C12.61035156 12.02605469 13.15820312 10.86460937 13.72265625 9.66796875 C14.35494141 8.34732422 14.35494141 8.34732422 15 7 C16.32 7.33 17.64 7.66 19 8 C16.49415892 16.40193774 12.78974143 24.11941439 9 32 C7.02 31.34 5.04 30.68 3 30 C2.67 22.41 2.34 14.82 2 7 C-1.96 15.91 -1.96 15.91 -6 25 C-7.32 24.67 -8.64 24.34 -10 24 C-9.31953501 20.87675977 -8.2565548 18.14116265 -6.93359375 15.234375 C-6.3293457 13.90019531 -6.3293457 13.90019531 -5.71289062 12.5390625 C-5.29201172 11.61867188 -4.87113281 10.69828125 -4.4375 9.75 C-4.01275391 8.81414062 -3.58800781 7.87828125 -3.15039062 6.9140625 C-2.10324814 4.6079959 -1.05302193 2.30338632 0 0 Z " fill="#F9F9FA" transform="translate(658,258)"/>
<path d="M0 0 C13.86 0.495 13.86 0.495 28 1 C27.67 2.32 27.34 3.64 27 5 C25.906875 5.020625 24.81375 5.04125 23.6875 5.0625 C19.70273947 5.61604458 19.70273947 5.61604458 18 9.3125 C16.82785715 13.30405741 16.82785715 13.30405741 18 17 C18.66 17.66 19.32 18.32 20 19 C19.625 21.125 19.625 21.125 19 23 C13.78893037 20.31737835 9.88076068 16.32588891 5.6875 12.3125 C4.94693359 11.61060547 4.20636719 10.90871094 3.44335938 10.18554688 C1.62501213 8.46104981 -0.18925573 6.73247277 -2 5 C-1.34 3.35 -0.68 1.7 0 0 Z " fill="#F8F8F9" transform="translate(276,418)"/>
<path d="M0 0 C4.95689558 1.9064983 7.3572843 4.91092644 10.25 9.25 C9.71808511 15.31382979 9.71808511 15.31382979 8.25 18.25 C6.93 17.59 5.61 16.93 4.25 16.25 C4.559375 14.6103125 4.559375 14.6103125 4.875 12.9375 C5.65346525 9.1661599 5.65346525 9.1661599 3.25 6.25 C0.0528229 5.32660426 0.0528229 5.32660426 -3.75 6.25 C-7.19458468 8.51358422 -10.23087461 10.97685069 -12.75 14.25 C-13.10677749 17.16869774 -13.14137216 18.59771307 -11.625 21.125 C-8.82848948 22.80290631 -6.81309468 21.99875648 -3.75 21.25 C-4.41 19.27 -5.07 17.29 -5.75 15.25 C-4.76 14.59 -3.77 13.93 -2.75 13.25 C-0.77 15.56 1.21 17.87 3.25 20.25 C1.13780202 24.47439597 0.39536134 25.36574484 -3.75 27.25 C-6.92163338 27.87053697 -8.79524178 27.76756914 -11.65234375 26.21875 C-15.30361087 23.53070059 -17.20611367 21.20887165 -18 16.6875 C-18.10162368 13.30568975 -17.91070385 12.47498538 -15.875 9.625 C-14.84375 8.84125 -13.8125 8.0575 -12.75 7.25 C-11.71359375 6.31414062 -11.71359375 6.31414062 -10.65625 5.359375 C-4.86817794 0.3245452 -4.86817794 0.3245452 0 0 Z " fill="#F0F0F2" transform="translate(770.75,340.75)"/>
<path d="M0 0 C3.19162198 1.6549151 5.29278786 3.0034738 7.375 5.9375 C8.11362282 8.37495531 8.14071838 10.46706921 8 13 C7.01 13.33 6.02 13.66 5 14 C4.34 13.67 3.68 13.34 3 13 C2.40644386 10.35139573 2.25790731 7.70802678 2 5 C-2.07448536 4.27443023 -2.07448536 4.27443023 -6 5 C-9.62470658 8.55695506 -12.73800342 12.572165 -13.29296875 17.71484375 C-13.20340367 20.13160502 -13.20340367 20.13160502 -11.3125 21.875 C-9.03495673 23.20164748 -9.03495673 23.20164748 -6.375 22.9375 C-3.84947882 22.20942333 -3.84947882 22.20942333 -2.6875 19.9375 C-2.460625 19.298125 -2.23375 18.65875 -2 18 C-3.32 17.34 -4.64 16.68 -6 16 C-5.67 15.01 -5.34 14.02 -5 13 C-2.36 14.32 0.28 15.64 3 17 C3 22.09013972 1.39163174 23.36610885 -2 27 C-4.95793723 28.47896861 -6.70220224 28.4355582 -10 28 C-13.22254402 25.86259835 -16.25333994 23.49332012 -18 20 C-18.501597 14.91133483 -17.31352712 12.07777968 -14.6875 7.75 C-14.07261719 6.71359375 -13.45773437 5.6771875 -12.82421875 4.609375 C-9.4132666 -0.26967432 -5.63102346 -0.87286186 0 0 Z " fill="#EFEFF2" transform="translate(697,276)"/>
<path d="M0 0 C2.0625 0.4375 2.0625 0.4375 4 1 C2.55049545 4.7910119 0.84827434 8.3874638 -1 12 C1.97 13.65 4.94 15.3 8 17 C9.65 14.03 11.3 11.06 13 8 C14.65 8.66 16.3 9.32 18 10 C17.22076172 11.35931641 17.22076172 11.35931641 16.42578125 12.74609375 C12.57315925 19.47339291 8.73751649 26.20778253 5 33 C3.35 32.34 1.7 31.68 0 31 C1.04166667 29.30729167 2.08333333 27.61458333 3.125 25.921875 C4.27624023 23.74520615 4.27624023 23.74520615 4 20 C1.36 18.68 -1.28 17.36 -4 16 C-5.65 18.64 -7.3 21.28 -9 24 C-10.32 23.67 -11.64 23.34 -13 23 C-11.51020556 17.59417445 -8.93840041 13.35226598 -5.9375 8.6875 C-5.47794922 7.95982422 -5.01839844 7.23214844 -4.54492188 6.48242188 C-1.17900989 1.17900989 -1.17900989 1.17900989 0 0 Z " fill="#F0F0F3" transform="translate(401,755)"/>
<path d="M0 0 C3.16816727 2.74841009 5.11112225 6.22671202 7.1875 9.8125 C7.55552734 10.41642578 7.92355469 11.02035156 8.30273438 11.64257812 C10.59083203 15.58625664 11.62574908 18.45202987 11 23 C8.52907065 26.56912018 6.2579087 29.70972464 2 31 C-1.58714069 31.45793285 -3.3508914 31.4156389 -6.421875 29.44921875 C-9.60210617 26.42799914 -11.34198769 23.31495971 -13.3125 19.4375 C-13.67150391 18.76525391 -14.03050781 18.09300781 -14.40039062 17.40039062 C-15.95096448 14.42624229 -17 12.39986438 -17 9 C-15.68 8.67 -14.36 8.34 -13 8 C-12.75878418 8.50974365 -12.51756836 9.0194873 -12.26904297 9.54467773 C-11.1603815 11.85399375 -10.01840163 14.14519962 -8.875 16.4375 C-8.30652344 17.64116211 -8.30652344 17.64116211 -7.7265625 18.86914062 C-5.39889512 23.65478783 -5.39889512 23.65478783 -0.8828125 26.16015625 C2.19960938 26.23359375 2.19960938 26.23359375 5 24 C5.94170949 18.40019178 3.55976206 14.40725818 1 9.625 C0.6184375 8.88894531 0.236875 8.15289062 -0.15625 7.39453125 C-1.09331735 5.5906766 -2.04519207 3.79452741 -3 2 C-2.01 1.34 -1.02 0.68 0 0 Z " fill="#F0F0F2" transform="translate(417,267)"/>
<path d="M0 0 C4.57341416 1.44423605 6.02269253 3.09118813 8.5625 7.125 C9.6875 10.6875 9.6875 10.6875 9.5625 14.125 C7.125 17.0625 7.125 17.0625 4.5625 19.125 C3.9025 17.805 3.2425 16.485 2.5625 15.125 C3.2225 14.465 3.8825 13.805 4.5625 13.125 C4.20986215 8.62182877 4.20986215 8.62182877 1.5625 5.125 C-0.54570797 5.4435177 -0.54570797 5.4435177 -2.4375 6.125 C-2.37949219 7.16140625 -2.32148438 8.1978125 -2.26171875 9.265625 C-2.21480962 10.63537156 -2.16931068 12.00516692 -2.125 13.375 C-2.08310547 14.05691406 -2.04121094 14.73882813 -1.99804688 15.44140625 C-1.9061423 19.22787494 -2.12166558 20.78445744 -4.734375 23.6015625 C-7.4375 25.125 -7.4375 25.125 -11 25.25 C-14.4375 24.125 -14.4375 24.125 -16.875 21.5625 C-18.80672033 17.31271527 -18.75567712 14.73856825 -18.4375 10.125 C-17.1175 9.465 -15.7975 8.805 -14.4375 8.125 C-13.7775 9.445 -13.1175 10.765 -12.4375 12.125 C-13.0975 12.125 -13.7575 12.125 -14.4375 12.125 C-14.63836443 15.84099191 -14.5894437 16.89708445 -12.4375 20.125 C-9.85369823 20.37530977 -9.85369823 20.37530977 -7.4375 20.125 C-7.48390625 19.01640625 -7.5303125 17.9078125 -7.578125 16.765625 C-7.61565102 15.30211032 -7.65205029 13.83856644 -7.6875 12.375 C-7.72101563 11.64539063 -7.75453125 10.91578125 -7.7890625 10.1640625 C-7.85375777 6.60582242 -7.73976983 4.54594844 -5.63671875 1.6171875 C-3.4375 0.125 -3.4375 0.125 0 0 Z " fill="#F0F0F3" transform="translate(308.4375,655.875)"/>
<path d="M0 0 C1.32 0.66 2.64 1.32 4 2 C2.01958365 6.47508446 -1.02843136 10.26948398 -3.98632812 14.13476562 C-5.91518788 16.79665421 -7.00852098 18.44768543 -6.95703125 21.78515625 C-6.09623165 24.32857014 -6.09623165 24.32857014 -3 26 C-0.57509644 26.26210611 -0.57509644 26.26210611 2 25 C4.36790637 22.67755743 6.32490723 20.08681867 8.3125 17.4375 C8.86228516 16.72658203 9.41207031 16.01566406 9.97851562 15.28320312 C11.33103103 13.5308136 12.67067152 11.77000388 14 10 C14.99 10.66 15.98 11.32 17 12 C15.6236267 15.94560346 13.80978922 18.81848256 11.1875 22.0625 C10.52105469 22.89910156 9.85460937 23.73570312 9.16796875 24.59765625 C6.92903159 27.07864067 4.74992695 29.09957278 2 31 C-2.38560585 31.07973829 -4.63137931 30.2252682 -8.375 27.9375 C-11.21963625 24.75421658 -12.02905599 23.12721503 -12.22265625 18.9609375 C-11.84176958 15.60646193 -10.05705368 13.52030438 -8 11 C-6.5772461 9.04608464 -5.16102488 7.08740227 -3.75 5.125 C-2.50115872 3.41581942 -1.25154366 1.70720276 0 0 Z " fill="#F3F3F4" transform="translate(718,291)"/>
<path d="M0 0 C1.32 0 2.64 0 4 0 C6.36328211 8.60234688 7.88740222 17.15157531 9 26 C7.35 25.67 5.7 25.34 4 25 C3.67 22.03 3.34 19.06 3 16 C-0.63 16.66 -4.26 17.32 -8 18 C-7.67 21.63 -7.34 25.26 -7 29 C-8.32 29 -9.64 29 -11 29 C-11.83840998 25.23027682 -12.6698549 21.4590511 -13.5 17.6875 C-13.73847656 16.61564453 -13.97695313 15.54378906 -14.22265625 14.43945312 C-14.44824219 13.41142578 -14.67382812 12.38339844 -14.90625 11.32421875 C-15.11572266 10.37635498 -15.32519531 9.42849121 -15.54101562 8.4519043 C-16 6 -16 6 -16 3 C-14.35 3 -12.7 3 -11 3 C-10.67 6.63 -10.34 10.26 -10 14 C-4.555 13.01 -4.555 13.01 1 12 C0.67 8.04 0.34 4.08 0 0 Z " fill="#F8F8F9" transform="translate(603,792)"/>
<path d="M0 0 C3.31217963 1.34940652 5.4792773 2.4792773 8 5 C8.125 7.625 8.125 7.625 8 10 C6.68 10 5.36 10 4 10 C3.67 8.35 3.34 6.7 3 5 C0.36 4.67 -2.28 4.34 -5 4 C-5.33 5.65 -5.66 7.3 -6 9 C-5.04287109 9.72316406 -5.04287109 9.72316406 -4.06640625 10.4609375 C-3.24011719 11.09257813 -2.41382813 11.72421875 -1.5625 12.375 C-0.32693359 13.31472656 -0.32693359 13.31472656 0.93359375 14.2734375 C3.60051257 16.50175152 3.93616609 17.41272799 4.3125 20.875 C4 24 4 24 2.4375 26.375 C-0.9265265 28.61768434 -3.02617986 28.488013 -7 28 C-10.5386994 26.34860695 -11.81070153 25.28394771 -14 22 C-14 20.68 -14 19.36 -14 18 C-12.35 18.33 -10.7 18.66 -9 19 C-8.67 20.32 -8.34 21.64 -8 23 C-5.69 23 -3.38 23 -1 23 C-0.88364895 20.70218446 -0.88364895 20.70218446 -2 18 C-3.93527531 16.29865907 -5.95139522 14.86566927 -8.08984375 13.4296875 C-10.68734013 11.48554911 -11.87952517 9.78308641 -12.375 6.5625 C-12 4 -12 4 -10.5 1.6875 C-7.04770223 -0.642801 -3.98713898 -0.65174387 0 0 Z " fill="#F3F3F5" transform="translate(495,792)"/>
<path d="M0 0 C2.76918671 2.09245892 5.2223122 4.34792944 7.703125 6.7734375 C9.7107508 8.71960536 11.72543794 10.3827655 14 12 C13.34 13.32 12.68 14.64 12 16 C7.00359278 13.21719091 3.04048245 9.5871221 -1.18359375 5.765625 C-3.91127922 3.67983237 -3.91127922 3.67983237 -7.28515625 4.171875 C-9.89094549 4.73426798 -9.89094549 4.73426798 -11 6 C-11.50169415 8.83073436 -11.50169415 8.83073436 -11 12 C-9.37511082 13.99179964 -7.9462826 15.3692107 -6 17 C-4.39467292 18.43620399 -2.79057272 19.87378016 -1.1875 21.3125 C0.20698528 22.54319582 1.60236488 23.77288246 3 25 C2.34 26.32 1.68 27.64 1 29 C-13.91440501 18.17118998 -13.91440501 18.17118998 -16 14 C-16.47210258 9.27897422 -16.73364092 6.34044655 -13.6875 2.5625 C-9.51839816 -1.41269013 -5.36156881 -1.94638464 0 0 Z " fill="#F4F4F6" transform="translate(765,700)"/>
<path d="M0 0 C1.4375 2.0625 1.4375 2.0625 2 4 C0.0625 4.5625 0.0625 4.5625 -2 5 C-2.33 4.67 -2.66 4.34 -3 4 C-5.33944736 4.28730055 -7.6739143 4.61936779 -10 5 C-9.67 6.65 -9.34 8.3 -9 10 C-8.10796875 10.02578125 -7.2159375 10.0515625 -6.296875 10.078125 C-4.54117187 10.16320312 -4.54117187 10.16320312 -2.75 10.25 C-1.58984375 10.29640625 -0.4296875 10.3428125 0.765625 10.390625 C4.51870577 11.09772717 5.74563273 11.96506489 8 15 C8.5625 18.5 8.5625 18.5 8 22 C4.4239536 25.5760464 1.55549359 27.16183443 -3.4375 27.375 C-5.8671875 27.3671875 -5.8671875 27.3671875 -8 27 C-10.0625 24.5 -10.0625 24.5 -11 22 C-9.68 21.34 -8.36 20.68 -7 20 C-6.649375 20.515625 -6.29875 21.03125 -5.9375 21.5625 C-3.90531273 23.40146383 -3.90531273 23.40146383 -0.3125 22.6875 C0.780625 22.460625 1.87375 22.23375 3 22 C3.042721 20.33388095 3.04063832 18.66617115 3 17 C1.3132325 15.3132325 -0.94024354 15.75469221 -3.25 15.625 C-8.05720315 15.2379265 -11.48566909 14.51433091 -15 11 C-15.375 7.6875 -15.375 7.6875 -15 4 C-10.30408904 -0.82282747 -6.47397002 -1.5302111 0 0 Z " fill="#F7F7F8" transform="translate(448,257)"/>
<path d="M0 0 C2.5 1.875 2.5 1.875 4 4 C4 4.66 4 5.32 4 6 C1.43784435 5.48756887 -1.09636258 4.97476218 -3.625 4.3125 C-6.26359783 3.70014522 -6.26359783 3.70014522 -9 6 C-8.67 7.32 -8.34 8.64 -8 10 C-7.09636719 10.18175781 -6.19273437 10.36351562 -5.26171875 10.55078125 C-4.08222656 10.80214844 -2.90273438 11.05351562 -1.6875 11.3125 C-0.51574219 11.55613281 0.65601563 11.79976563 1.86328125 12.05078125 C4.90581589 12.97149846 6.21759892 13.42333599 8 16 C8.5 19.4375 8.5 19.4375 8 23 C4.48062689 26.6144913 1.58729322 27.88456049 -3.4375 28.25 C-7.13882535 27.99025787 -8.55017636 27.74380248 -11 25 C-11 23.68 -11 22.36 -11 21 C-9.68 21 -8.36 21 -7 21 C-6.67 21.66 -6.34 22.32 -6 23 C-1.34947128 23.26932521 -1.34947128 23.26932521 3 22 C2.505 19.525 2.505 19.525 2 17 C1.18015625 16.91363281 0.3603125 16.82726562 -0.484375 16.73828125 C-9.23136933 15.59782386 -9.23136933 15.59782386 -12.8125 12.8125 C-14.41516241 9.0167206 -14.23211974 6.91379213 -13 3 C-9.05952266 -0.70166054 -5.11860935 -0.56873437 0 0 Z " fill="#F5F5F7" transform="translate(476,246)"/>
<path d="M0 0 C3.94987108 3.79129961 7.38198567 7.81285228 10.75 12.125 C11.24371094 12.74503906 11.73742187 13.36507812 12.24609375 14.00390625 C14.32010354 16.6461379 15.92964479 18.78893436 17 22 C15.04594482 23.50587739 13.08718716 25.00478644 11.125 26.5 C10.56941406 26.92925781 10.01382813 27.35851562 9.44140625 27.80078125 C5.2265625 31 5.2265625 31 3 31 C2.67 30.01 2.34 29.02 2 28 C3.1196986 26.99406757 4.2459412 25.9954151 5.375 25 C6.00148438 24.443125 6.62796875 23.88625 7.2734375 23.3125 C9 22 9 22 11 22 C9.68 20.02 8.36 18.04 7 16 C6.54109375 16.37253906 6.0821875 16.74507812 5.609375 17.12890625 C4.99578125 17.60199219 4.3821875 18.07507813 3.75 18.5625 C3.14671875 19.03816406 2.5434375 19.51382813 1.921875 20.00390625 C0 21 0 21 -2.234375 20.65234375 C-2.81703125 20.43707031 -3.3996875 20.22179687 -4 20 C-4 19.34 -4 18.68 -4 18 C-2.46875 16.7109375 -2.46875 16.7109375 -0.5 15.375 C0.1496875 14.92898438 0.799375 14.48296875 1.46875 14.0234375 C1.9740625 13.68570313 2.479375 13.34796875 3 13 C2.34 11.35 1.68 9.7 1 8 C-3.02591332 7.5757447 -3.02591332 7.5757447 -5.5 10.0625 C-8 12 -8 12 -10.3125 11.75 C-10.869375 11.5025 -11.42625 11.255 -12 11 C-12 10.34 -12 9.68 -12 9 C-10.03062339 7.37643654 -8.06654852 5.86440434 -6 4.375 C-5.42765625 3.95476563 -4.8553125 3.53453125 -4.265625 3.1015625 C-2.84796067 2.06194199 -1.42450738 1.03022409 0 0 Z " fill="#F1F1F3" transform="translate(714,740)"/>
<path d="M0 0 C1.46582355 2.14281033 2.81123514 4.26706396 4.125 6.5 C4.68380859 7.43005859 4.68380859 7.43005859 5.25390625 8.37890625 C6.17578953 9.91537838 7.08873475 11.45720675 8 13 C6.02 13.99 6.02 13.99 4 15 C2.35 12.36 0.7 9.72 -1 7 C-2.65 7.66 -4.3 8.32 -6 9 C-5.566875 10.0828125 -5.566875 10.0828125 -5.125 11.1875 C-3.5625 15.09375 -3.5625 15.09375 -2 19 C-3.32 19.33 -4.64 19.66 -6 20 C-7.32 17.69 -8.64 15.38 -10 13 C-12.31 13.66 -14.62 14.32 -17 15 C-16.6390625 15.61488281 -16.278125 16.22976563 -15.90625 16.86328125 C-15.4421875 17.67152344 -14.978125 18.47976563 -14.5 19.3125 C-14.0359375 20.11300781 -13.571875 20.91351563 -13.09375 21.73828125 C-12 24 -12 24 -12 27 C-13.765625 26.84765625 -13.765625 26.84765625 -16 26 C-17.921875 23.49609375 -17.921875 23.49609375 -19.75 20.4375 C-20.36359375 19.42558594 -20.9771875 18.41367187 -21.609375 17.37109375 C-22.06828125 16.58863281 -22.5271875 15.80617188 -23 15 C-19.05003589 10.69306467 -14.78545872 7.72528021 -9.8125 4.6875 C-9.08869141 4.23310547 -8.36488281 3.77871094 -7.61914062 3.31054688 C-2.2675047 0 -2.2675047 0 0 0 Z " fill="#F1F1F3" transform="translate(792,366)"/>
<path d="M0 0 C3.5 0.5 3.5 0.5 5.4375 1.5 C7.97139194 6.26967894 6.59500426 13.42316209 5.5 18.5 C4.3125 20.4375 4.3125 20.4375 2.5 21.5 C-2.56373626 22.13296703 -2.56373626 22.13296703 -5.1640625 20.375 C-7.1176443 17.6331308 -6.89786747 15.45602835 -6.875 12.125 C-6.88273438 11.00351562 -6.89046875 9.88203125 -6.8984375 8.7265625 C-6.26696171 3.61284678 -5.31032703 0.75861815 0 0 Z " fill="#0F0E2B" transform="translate(522.5,799.5)"/>
<path d="M0 0 C0.99 0.33 1.98 0.66 3 1 C2.44687265 5.02992782 1.8441938 9.02022924 1 13 C3.31 13.33 5.62 13.66 8 14 C8.12117188 13.36191406 8.24234375 12.72382813 8.3671875 12.06640625 C8.53476562 11.24011719 8.70234375 10.41382813 8.875 9.5625 C9.03742188 8.73878906 9.19984375 7.91507812 9.3671875 7.06640625 C9.57601563 6.38449219 9.78484375 5.70257813 10 5 C10.66 4.67 11.32 4.34 12 4 C12.66 4.33 13.32 4.66 14 5 C13.01 8.63 12.02 12.26 11 16 C13.64 16 16.28 16 19 16 C19.99 13.03 20.98 10.06 22 7 C23.32 7 24.64 7 26 7 C24.68 12.28 23.36 17.56 22 23 C3.85714286 18.85714286 3.85714286 18.85714286 -4 16 C-2.68 10.72 -1.36 5.44 0 0 Z " fill="#F2F2F4" transform="translate(267,442)"/>
<path d="M0 0 C2.49560036 2.24460607 3.8705484 4.38520597 5.25 7.4375 C5.60578125 8.19933594 5.9615625 8.96117187 6.328125 9.74609375 C7.12151105 12.40762719 7.05348104 13.44606895 6 16 C4.00634766 17.29614258 4.00634766 17.29614258 1.4140625 18.39453125 C0.48335938 18.79220703 -0.44734375 19.18988281 -1.40625 19.59960938 C-2.3859375 19.99986328 -3.365625 20.40011719 -4.375 20.8125 C-5.34695313 21.23208984 -6.31890625 21.65167969 -7.3203125 22.08398438 C-14.5969596 25.1343468 -14.5969596 25.1343468 -18 24 C-19.38671875 21.34765625 -19.38671875 21.34765625 -20.6875 18.0625 C-21.12449219 16.98097656 -21.56148438 15.89945313 -22.01171875 14.78515625 C-23 12 -23 12 -23 10 C-21.1875 10.125 -21.1875 10.125 -19 11 C-17.04679411 14.20883825 -16 16.2205439 -16 20 C-15.401875 19.67 -14.80375 19.34 -14.1875 19 C-12 18 -12 18 -9 18 C-9.2165625 17.38511719 -9.433125 16.77023437 -9.65625 16.13671875 C-9.9346875 15.32847656 -10.213125 14.52023437 -10.5 13.6875 C-10.7784375 12.88699219 -11.056875 12.08648438 -11.34375 11.26171875 C-12 9 -12 9 -12 6 C-11.01 6 -10.02 6 -9 6 C-6 11.625 -6 11.625 -6 15 C-3.36 14.34 -0.72 13.68 2 13 C1.71125 12.30132813 1.4225 11.60265625 1.125 10.8828125 C0.75375 9.97273437 0.3825 9.06265625 0 8.125 C-0.37125 7.22007812 -0.7425 6.31515625 -1.125 5.3828125 C-2 3 -2 3 -2 1 C-1.34 0.67 -0.68 0.34 0 0 Z " fill="#F4F4F6" transform="translate(298,629)"/>
<path d="M0 0 C6.3782235 -0.36103152 6.3782235 -0.36103152 8.9375 1.125 C10.58000742 4.02354251 10.4240545 5.66814324 10 9 C6.95890411 18.04109589 6.95890411 18.04109589 5 20 C-1.35077986 20.47042814 -1.35077986 20.47042814 -3.73046875 18.74609375 C-5.77360189 15.93599986 -5.07003731 13.73122454 -4.59375 10.4296875 C-3.65181982 6.57521007 -1.94433063 3.44961887 0 0 Z " fill="#0C0B28" transform="translate(458,788)"/>
<path d="M0 0 C17.85649203 4.03872437 17.85649203 4.03872437 26 7 C25.52396226 9.12570312 25.04407402 11.25054427 24.5625 13.375 C24.29566406 14.55835938 24.02882813 15.74171875 23.75390625 16.9609375 C23 20 23 20 22 22 C21.01 22 20.02 22 19 22 C19.66 18.04 20.32 14.08 21 10 C18.69 9.67 16.38 9.34 14 9 C13.34 12.3 12.68 15.6 12 19 C10.68 18.34 9.36 17.68 8 17 C8.99 13.7 9.98 10.4 11 7 C8.36 6.67 5.72 6.34 3 6 C2.01 9.3 1.02 12.6 0 16 C-0.99 16 -1.98 16 -3 16 C-2.40923065 10.48615274 -1.38744381 5.36929475 0 0 Z " fill="#F6F6F7" transform="translate(808,593)"/>
<path d="M0 0 C1.54163175 3.0832635 1.29747535 5.60878099 1 9 C-2.03967169 12.09033288 -4.8334849 12.52913259 -9.0625 12.875 C-10.10535156 12.97554688 -11.14820313 13.07609375 -12.22265625 13.1796875 C-15 13 -15 13 -16.80859375 11.6328125 C-19.19909926 8.3566443 -19.08700603 6.0022774 -19 2 C-16.95928485 1.66089006 -14.91737379 1.32897296 -12.875 1 C-11.73804688 0.814375 -10.60109375 0.62875 -9.4296875 0.4375 C-6.23862398 0.03043951 -3.21182209 -0.07809902 0 0 Z " fill="#0F0E2A" transform="translate(834,479)"/>
<path d="M0 0 C5.61 0 11.22 0 17 0 C17 8.91 17 17.82 17 27 C15.35 27 13.7 27 12 27 C12 19.41 12 11.82 12 4 C8.04 4 4.08 4 0 4 C0 2.68 0 1.36 0 0 Z " fill="#E5E5E9" transform="translate(543,798)"/>
<path d="M0 0 C1.32 0.66 2.64 1.32 4 2 C0.17446809 7.80425532 0.17446809 7.80425532 -1.6015625 9.796875 C-3.47339867 12.74580126 -3.43919023 15.03141538 -3.5625 18.5 C-3.71579539 22.55071462 -3.86592366 25.50320022 -6 29 C-7.51953125 27.88671875 -7.51953125 27.88671875 -9 26 C-9.07421875 23.08203125 -9.07421875 23.08203125 -8.6875 19.8125 C-8.56761719 18.72582031 -8.44773437 17.63914062 -8.32421875 16.51953125 C-8.21722656 15.68808594 -8.11023438 14.85664062 -8 14 C-8.67546875 14.31195312 -9.3509375 14.62390625 -10.046875 14.9453125 C-10.93890625 15.33460938 -11.8309375 15.72390625 -12.75 16.125 C-13.63171875 16.51945313 -14.5134375 16.91390625 -15.421875 17.3203125 C-18 18 -18 18 -20.328125 17.1171875 C-21.15570313 16.56417969 -21.15570313 16.56417969 -22 16 C-22 15.34 -22 14.68 -22 14 C-19.70967689 13.16280617 -17.41789043 12.3301071 -15.125 11.5 C-14.47402344 11.26152344 -13.82304687 11.02304687 -13.15234375 10.77734375 C-8.2265625 9 -8.2265625 9 -6 9 C-5.7525 8.443125 -5.505 7.88625 -5.25 7.3125 C-3.78393985 4.60028873 -1.97010529 2.36412635 0 0 Z " fill="#F2F2F4" transform="translate(382,742)"/>
<path d="M0 0 C4.1363211 1.46256658 7.45421154 3.51844637 11.0625 6 C14.30294598 8.22295411 17.42590379 10.35437297 21 12 C21.66 10.35 22.32 8.7 23 7 C24.32 7.33 25.64 7.66 27 8 C25.31029911 11.66398299 23.12699789 14.90832572 20.875 18.25 C20.15054688 19.32765625 19.42609375 20.4053125 18.6796875 21.515625 C18.12539063 22.33546875 17.57109375 23.1553125 17 24 C16.01 23.67 15.02 23.34 14 23 C14.99 19.535 14.99 19.535 16 16 C10.39 12.04 4.78 8.08 -1 4 C-0.67 2.68 -0.34 1.36 0 0 Z " fill="#EFEFF1" transform="translate(770,679)"/>
<path d="M0 0 C1.32 0 2.64 0 4 0 C3.57045059 6.25107435 2.98598493 12.04204521 1 18 C0.01 18 -0.98 18 -2 18 C-1.67 15.69 -1.34 13.38 -1 11 C-2.61068359 10.81824219 -2.61068359 10.81824219 -4.25390625 10.6328125 C-5.69013975 10.46384385 -7.12633572 10.29455596 -8.5625 10.125 C-9.61920898 10.00705078 -9.61920898 10.00705078 -10.69726562 9.88671875 C-15.3131709 9.33366097 -19.56176603 8.38804164 -24 7 C-23.67 5.68 -23.34 4.36 -23 3 C-15.24548194 3.58006237 -7.65257723 4.62440584 0 6 C0 4.02 0 2.04 0 0 Z " fill="#F1F1F3" transform="translate(835,569)"/>
<path d="M0 0 C0.99 0 1.98 0 3 0 C3.33 2.31 3.66 4.62 4 7 C5.77117187 7.30744141 5.77117187 7.30744141 7.578125 7.62109375 C9.13542997 7.89315305 10.6927209 8.16529268 12.25 8.4375 C13.02730469 8.57220703 13.80460937 8.70691406 14.60546875 8.84570312 C15.35957031 8.97783203 16.11367188 9.10996094 16.890625 9.24609375 C17.92751465 9.42676392 17.92751465 9.42676392 18.98535156 9.61108398 C21.01266117 10.00244416 23.00194515 10.48089751 25 11 C24.67 12.32 24.34 13.64 24 15 C16.30232994 14.2036893 8.65647079 13.12178733 1 12 C1 13.65 1 15.3 1 17 C-0.32 17.33 -1.64 17.66 -3 18 C-2.6919856 15.37440156 -2.37879818 12.74960194 -2.0625 10.125 C-1.97548828 9.37863281 -1.88847656 8.63226563 -1.79882812 7.86328125 C-1.11328125 2.2265625 -1.11328125 2.2265625 0 0 Z " fill="#F2F2F4" transform="translate(260,471)"/>
<path d="M0 0 C1.32 0.33 2.64 0.66 4 1 C3.33742578 8.72422049 2.23535374 16.34800303 1 24 C4.63 24.66 8.26 25.32 12 26 C11.67 26.99 11.34 27.98 11 29 C8.70704764 28.71861942 6.41564544 28.4245814 4.125 28.125 C2.84882812 27.96257812 1.57265625 27.80015625 0.2578125 27.6328125 C-3 27 -3 27 -5 25 C-4.76806641 22.47802734 -4.76806641 22.47802734 -4.1015625 19.3359375 C-3.86953125 18.21445312 -3.6375 17.09296875 -3.3984375 15.9375 C-3.14320313 14.761875 -2.88796875 13.58625 -2.625 12.375 C-2.3775 11.19164062 -2.13 10.00828125 -1.875 8.7890625 C-1.26022419 5.8570548 -0.63481376 2.92772316 0 0 Z " fill="#F7F7F8" transform="translate(597,241)"/>
<path d="M0 0 C1.32 0 2.64 0 4 0 C4 5.28 4 10.56 4 16 C1.16724047 16.33896268 -1.66604661 16.67129694 -4.5 17 C-5.68722656 17.14308594 -5.68722656 17.14308594 -6.8984375 17.2890625 C-11.97029404 17.87107882 -16.89493859 18.09367085 -22 18 C-22 16.68 -22 15.36 -22 14 C-14.41 13.34 -6.82 12.68 1 12 C0.67 8.04 0.34 4.08 0 0 Z " fill="#F9F9FA" transform="translate(277,543)"/>
<path d="M0 0 C0.99 0 1.98 0 3 0 C3 5.28 3 10.56 3 16 C-5.58 16 -14.16 16 -23 16 C-23 14.68 -23 13.36 -23 12 C-15.41 12 -7.82 12 0 12 C0 8.04 0 4.08 0 0 Z " fill="#FFFFFF" transform="translate(277,517)"/>
<path d="M0 0 C8.58 0 17.16 0 26 0 C26 1.32 26 2.64 26 4 C18.41 4 10.82 4 3 4 C3 7.96 3 11.92 3 16 C2.01 16 1.02 16 0 16 C0 10.72 0 5.44 0 0 Z " fill="#FFFFFF" transform="translate(815,524)"/>
<path d="M0 0 C8.71782637 -0.16311941 17.31238511 0.34344611 26 1 C26 2.65 26 4.3 26 6 C17.42 5.34 8.84 4.68 0 4 C0 2.68 0 1.36 0 0 Z " fill="#F6F6F8" transform="translate(815,551)"/>
<path d="M0 0 C1.32 0 2.64 0 4 0 C5.44796872 8.73952546 6.29211698 17.13911833 6 26 C4.68 26 3.36 26 2 26 C1.661671 22.79217315 1.33023854 19.58366902 1 16.375 C0.90460937 15.47136719 0.80921875 14.56773437 0.7109375 13.63671875 C0.24420109 9.06936961 -0.12222799 4.59882812 0 0 Z " fill="#FAFAFA" transform="translate(572,797)"/>
<path d="M0 0 C1.65 0 3.3 0 5 0 C5.67245837 3.58227157 6.33695539 7.1659751 7 10.75 C7.28617187 12.27367187 7.28617187 12.27367187 7.578125 13.828125 C7.75859375 14.8078125 7.9390625 15.7875 8.125 16.796875 C8.29257812 17.69760742 8.46015625 18.59833984 8.6328125 19.52636719 C9 22 9 22 9 26 C7.68 26 6.36 26 5 26 C4.16512213 21.85447613 3.33235565 17.70853097 2.5 13.5625 C2.26152344 12.37849609 2.02304687 11.19449219 1.77734375 9.97460938 C1.55175781 8.84990234 1.32617188 7.72519531 1.09375 6.56640625 C0.88427734 5.52427979 0.67480469 4.48215332 0.45898438 3.40844727 C0 1 0 1 0 0 Z " fill="#FAFAFA" transform="translate(491,242)"/>
<path d="M0 0 C3.17027011 1.26810804 4.959289 3.33731526 7.1875 5.875 C7.1875 6.535 7.1875 7.195 7.1875 7.875 C5.56123596 9.25732443 3.8949998 10.59437515 2.1875 11.875 C-1.15413899 10.49225283 -3.07016748 9.08455991 -4.8125 5.875 C-4.625 3.1875 -4.625 3.1875 -3.8125 0.875 C-1.8125 -0.125 -1.8125 -0.125 0 0 Z " fill="#181734" transform="translate(343.8125,710.125)"/>
<path d="M0 0 C2.375 0.0625 2.375 0.0625 5 1 C6.96398404 3.94597606 8.15784809 5.80035455 7.6875 9.375 C7.460625 9.91125 7.23375 10.4475 7 11 C4.69 11.33 2.38 11.66 0 12 C-1.62112003 7.89951993 -2.33963162 5.26246425 -1 1 C-0.67 0.67 -0.34 0.34 0 0 Z " fill="#161632" transform="translate(282,606)"/>
<path d="M0 0 C5.75 1.875 5.75 1.875 8 3 C6.125 9.875 6.125 9.875 5 11 C2 11.125 2 11.125 -1 11 C-1.33 10.67 -1.66 10.34 -2 10 C-1.9140625 7.96875 -1.9140625 7.96875 -1.625 5.5 C-1.53476562 4.6853125 -1.44453125 3.870625 -1.3515625 3.03125 C-1 1 -1 1 0 0 Z " fill="#13122E" transform="translate(812,628)"/>
<path d="M0 0 C3.125 0.1875 3.125 0.1875 6.125 2.1875 C5.57776317 5.56212715 5.0701 7.26985 3.125 10.1875 C-2.625 8.4375 -2.625 8.4375 -4.875 6.1875 C-4.15346072 0.27087787 -4.15346072 0.27087787 0 0 Z " fill="#12112E" transform="translate(428.875,786.8125)"/>
<path d="M0 0 C0.33 2.64 0.66 5.28 1 8 C-5.0546875 8.9765625 -5.0546875 8.9765625 -7 9 C-9 7 -9 7 -9.4375 4.5625 C-9 2 -9 2 -6.75 0.125 C-3.83945073 -1.06567925 -2.84961767 -1.16095535 0 0 Z " fill="#100F2C" transform="translate(636,800)"/>
<path d="M0 0 C1.98 1.65 3.96 3.3 6 5 C4.84826645 7.46800047 3.95216435 9.04783565 2 11 C-1.0625 11.1875 -1.0625 11.1875 -4 11 C-5 10 -5 10 -5.375 7.75 C-4.84916402 3.89386948 -2.85570359 2.49874064 0 0 Z " fill="#100F2C" transform="translate(743,733)"/>
<path d="M0 0 C1 1 1 1 1.375 3.3125 C1 6 1 6 -1.5 8.3125 C-2.7375 9.1478125 -2.7375 9.1478125 -4 10 C-6.99324263 8.9024777 -7.84610901 8.32317108 -9.25 5.375 C-9.4975 4.59125 -9.745 3.8075 -10 3 C-6.69441788 -0.05130657 -4.44349211 -0.39497708 0 0 Z " fill="#0D0C29" transform="translate(388,292)"/>
<path d="M0 0 C5.53846154 0.49230769 5.53846154 0.49230769 7.875 3.0625 C8.431875 4.0215625 8.431875 4.0215625 9 5 C7.95125002 7.62187494 7.35068687 8.79371361 4.875 10.25 C4.25625 10.4975 3.6375 10.745 3 11 C1.35 9.02 -0.3 7.04 -2 5 C-1.34 3.35 -0.68 1.7 0 0 Z " fill="#161531" transform="translate(333,719)"/>
<path d="M0 0 C2.5625 0.1875 2.5625 0.1875 4.5625 2.1875 C4.96297444 4.51025177 5.3022104 6.84489357 5.5625 9.1875 C2.9225 9.5175 0.2825 9.8475 -2.4375 10.1875 C-2.63162181 8.70918779 -2.81762131 7.22980684 -3 5.75 C-3.10441406 4.92628906 -3.20882813 4.10257813 -3.31640625 3.25390625 C-3.35636719 2.57199219 -3.39632813 1.89007812 -3.4375 1.1875 C-2.4375 0.1875 -2.4375 0.1875 0 0 Z " fill="#12112E" transform="translate(273.4375,610.8125)"/>
<path d="M0 0 C4.2742558 1.5830577 6.26531794 4.50568404 9 8 C4.47907032 9.45606519 1.48351204 8.27032841 -3 7 C-2.01 4.69 -1.02 2.38 0 0 Z " fill="#24233F" transform="translate(794,657)"/>
<path d="M0 0 C0.66 0 1.32 0 2 0 C2 3.63 2 7.26 2 11 C-0.31 10.67 -2.62 10.34 -5 10 C-5 6.65580848 -4.52480606 5.93159679 -2.625 3.3125 C-2.18414063 2.68988281 -1.74328125 2.06726563 -1.2890625 1.42578125 C-0.86367188 0.95527344 -0.43828125 0.48476563 0 0 Z " fill="#20203C" transform="translate(632,256)"/>
<path d="M0 0 C5 7.5 5 7.5 5 12 C2.36 12 -0.28 12 -3 12 C-2.01 8.04 -1.02 4.08 0 0 Z " fill="#1E1E3A" transform="translate(521,243)"/>
<path d="M0 0 C1.70884005 1.62339805 3.37446717 3.29319053 5 5 C5 5.66 5 6.32 5 7 C-0.445 8.485 -0.445 8.485 -6 10 C-4.29395475 5.73488687 -2.90212286 3.38581001 0 0 Z " fill="#1A1936" transform="translate(320,690)"/>
<path d="M0 0 C0 2.31 0 4.62 0 7 C-1.45922693 6.88590407 -2.91740598 6.75834456 -4.375 6.625 C-5.59316406 6.52058594 -5.59316406 6.52058594 -6.8359375 6.4140625 C-9 6 -9 6 -11 4 C-9.73760288 3.13341385 -8.46472499 2.28207941 -7.1875 1.4375 C-6.47980469 0.96183594 -5.77210938 0.48617187 -5.04296875 -0.00390625 C-3 -1 -3 -1 0 0 Z " fill="#1B1B37" transform="translate(276,580)"/>
<path d="M0 0 C-1.09463822 1.17561146 -2.20107186 2.3402489 -3.3125 3.5 C-3.92738281 4.1496875 -4.54226563 4.799375 -5.17578125 5.46875 C-7 7 -7 7 -10 7 C-10.66 4.69 -11.32 2.38 -12 0 C-3.96428571 -1.20535714 -3.96428571 -1.20535714 0 0 Z " fill="#1B1A37" transform="translate(814,419)"/>
<path d="M0 0 C3.96 0.33 7.92 0.66 12 1 C11.34 3.31 10.68 5.62 10 8 C4.86671748 7.207689 3.12443548 3.90554436 0 0 Z " fill="#191834" transform="translate(280,422)"/>
<path d="M0 0 C0.33 0.66 0.66 1.32 1 2 C0.00390625 4.1640625 0.00390625 4.1640625 -1.4375 6.625 C-1.91058594 7.44226563 -2.38367188 8.25953125 -2.87109375 9.1015625 C-3.24363281 9.72804688 -3.61617187 10.35453125 -4 11 C-5.98 9.35 -7.96 7.7 -10 6 C-6.87567603 3.47650757 -3.61939504 1.72743854 0 0 Z " fill="#171633" transform="translate(749,324)"/>
<path d="M0 0 C2.375 0.25 2.375 0.25 3.375 1.25 C3.41580783 3.24958364 3.41754356 5.25045254 3.375 7.25 C-2.16346154 6.63461538 -2.16346154 6.63461538 -4.5 4.6875 C-4.87125 4.213125 -5.2425 3.73875 -5.625 3.25 C-3.7774876 0.91630013 -3.0311278 0.28867884 0 0 Z " fill="#161532" transform="translate(675.625,769.75)"/>
<path d="M0 0 C0.66 0.33 1.32 0.66 2 1 C0.35 2.65 -1.3 4.3 -3 6 C-2.67 6.66 -2.34 7.32 -2 8 C-4.31 8.33 -6.62 8.66 -9 9 C-6 6 -3 3 0 0 Z " fill="#2C2B47" transform="translate(821,452)"/>
<path d="M0 0 C1.32 0.66 2.64 1.32 4 2 C4 3.32 4 4.64 4 6 C2.35 5.67 0.7 5.34 -1 5 C-0.67 3.35 -0.34 1.7 0 0 Z " fill="#292843" transform="translate(679,783)"/>
</svg>
