<?xml version="1.0" encoding="UTF-8"?>
<svg xmlns="http://www.w3.org/2000/svg" version="1.1" width="633px" height="291px" style="shape-rendering:geometricPrecision; text-rendering:geometricPrecision; image-rendering:optimizeQuality; fill-rule:evenodd; clip-rule:evenodd">
<g><path style="opacity:1" fill="#db6f73" d="M 367.5,3.5 C 362.384,4.80629 357.051,5.47295 351.5,5.5C 356.598,4.04269 361.931,3.37603 367.5,3.5 Z"/></g>
<g><path style="opacity:1" fill="#c71e30" d="M 157.5,0.5 C 162.876,0.854816 167.543,2.85482 171.5,6.5C 169.333,9.5 167.167,12.5 165,15.5C 159.607,10.9728 153.44,9.47285 146.5,11C 144.771,12.7889 144.104,14.9556 144.5,17.5C 143.549,16.0813 143.216,14.4147 143.5,12.5C 139.901,12.7381 139.567,11.7381 142.5,9.5C 143.192,10.0253 143.692,10.6919 144,11.5C 144.249,10.376 144.749,9.37598 145.5,8.5C 147.658,9.00199 149.991,9.00199 152.5,8.5C 154.824,8.72931 156.991,9.39597 159,10.5C 161.135,9.87291 163.302,9.37291 165.5,9C 166.711,8.10723 166.711,7.2739 165.5,6.5C 164.038,7.47091 162.705,7.13758 161.5,5.5C 162.167,4.83333 162.833,4.16667 163.5,3.5C 161.025,3.03582 159.025,2.03582 157.5,0.5 Z"/></g>
<g><path style="opacity:1" fill="#b73043" d="M 183.5,4.5 C 181.638,8.13355 180.304,11.9669 179.5,16C 179.864,18.9212 180.531,21.7545 181.5,24.5C 180.883,24.3893 180.383,24.056 180,23.5C 177.218,16.2772 178.385,9.94391 183.5,4.5 Z"/></g>
<g><path style="opacity:1" fill="#cd0a25" d="M 245.5,-0.5 C 249.833,-0.5 254.167,-0.5 258.5,-0.5C 262.12,0.837124 265.787,2.33712 269.5,4C 271.325,5.46587 271.825,7.2992 271,9.5C 268.954,11.3761 267.121,13.3761 265.5,15.5C 262.543,13.1884 259.209,11.6884 255.5,11C 240.914,10.5998 234.748,17.7664 237,32.5C 242.152,44.6498 250.652,47.6498 262.5,41.5C 263.48,38.9135 263.813,36.2469 263.5,33.5C 260.038,32.5184 256.371,32.185 252.5,32.5C 252.5,29.8333 252.5,27.1667 252.5,24.5C 259.5,24.5 266.5,24.5 273.5,24.5C 273.5,32.1667 273.5,39.8333 273.5,47.5C 269.418,50.7048 264.752,52.8714 259.5,54C 245.585,57.4779 234.751,53.3112 227,41.5C 219.347,21.265 225.514,7.265 245.5,-0.5 Z"/></g>
<g><path style="opacity:1" fill="#cd0925" d="M 191.5,-0.5 C 195.5,-0.5 199.5,-0.5 203.5,-0.5C 206.429,0.53768 209.429,1.70435 212.5,3C 214.327,3.89927 215.66,5.23261 216.5,7C 214.548,9.7316 212.715,12.5649 211,15.5C 209.855,14.3636 208.688,13.3636 207.5,12.5C 206.77,10.955 205.437,10.1216 203.5,10C 199.973,9.1925 196.64,9.35916 193.5,10.5C 189.987,12.9083 189.654,15.7417 192.5,19C 197.938,20.3591 203.272,22.0257 208.5,24C 211.927,25.4313 214.76,27.598 217,30.5C 220.558,40.1256 218.058,47.6256 209.5,53C 197.133,56.7216 186.133,54.3883 176.5,46C 178.5,43.6667 180.5,41.3333 182.5,39C 187.513,41.7291 193.013,43.5624 199,44.5C 200.5,44.3333 202,44.1667 203.5,44C 208.368,41.5228 208.701,38.5228 204.5,35C 199.106,33.5353 193.772,31.8686 188.5,30C 185.405,29.0646 183.071,27.2313 181.5,24.5C 180.531,21.7545 179.864,18.9212 179.5,16C 180.304,11.9669 181.638,8.13355 183.5,4.5C 185.863,2.3199 188.53,0.65323 191.5,-0.5 Z"/></g>
<g><path style="opacity:1" fill="#cb4854" d="M 193.5,10.5 C 196.64,9.35916 199.973,9.1925 203.5,10C 205.437,10.1216 206.77,10.955 207.5,12.5C 203.006,10.8884 198.339,10.2217 193.5,10.5 Z"/></g>
<g><path style="opacity:1" fill="#d0524d" d="M 91.5,28.5 C 82.4012,30.2904 73.0679,31.2904 63.5,31.5C 72.6069,29.7491 81.9403,28.7491 91.5,28.5 Z"/></g>
<g><path style="opacity:1" fill="#c53643" d="M 273.5,47.5 C 273.5,39.8333 273.5,32.1667 273.5,24.5C 266.5,24.5 259.5,24.5 252.5,24.5C 252.5,27.1667 252.5,29.8333 252.5,32.5C 256.371,32.185 260.038,32.5184 263.5,33.5C 259.5,33.5 255.5,33.5 251.5,33.5C 251.5,30.1667 251.5,26.8333 251.5,23.5C 259.5,23.5 267.5,23.5 275.5,23.5C 275.666,31.1739 275.5,38.8406 275,46.5C 274.617,47.056 274.117,47.3893 273.5,47.5 Z"/></g>
<g><path style="opacity:1" fill="#ce0c25" d="M 145.5,-0.5 C 149.5,-0.5 153.5,-0.5 157.5,-0.5C 157.5,-0.166667 157.5,0.166667 157.5,0.5C 159.025,2.03582 161.025,3.03582 163.5,3.5C 162.833,4.16667 162.167,4.83333 161.5,5.5C 162.705,7.13758 164.038,7.47091 165.5,6.5C 166.711,7.2739 166.711,8.10723 165.5,9C 163.302,9.37291 161.135,9.87291 159,10.5C 156.991,9.39597 154.824,8.72931 152.5,8.5C 149.991,9.00199 147.658,9.00199 145.5,8.5C 144.749,9.37598 144.249,10.376 144,11.5C 143.692,10.6919 143.192,10.0253 142.5,9.5C 139.567,11.7381 139.901,12.7381 143.5,12.5C 143.216,14.4147 143.549,16.0813 144.5,17.5C 153.029,20.5481 161.363,24.0481 169.5,28C 170.211,29.2547 171.044,30.4214 172,31.5C 175.137,43.1037 170.971,50.6037 159.5,54C 149.299,55.9908 140.132,53.8241 132,47.5C 132.211,43.4352 134.211,40.4352 138,38.5C 142.543,41.9614 147.71,43.9614 153.5,44.5C 161.448,44.1241 163.114,40.9575 158.5,35C 152.363,33.3989 146.363,31.3989 140.5,29C 137.667,27.5 135.5,25.3333 134,22.5C 130.58,11.1121 134.414,3.44548 145.5,-0.5 Z"/></g>
<g><path style="opacity:1" fill="#cf0523" d="M 351.5,68.5 C 351.5,68.1667 351.5,67.8333 351.5,67.5C 351.5,66.8333 351.5,66.1667 351.5,65.5C 352.825,66.9526 353.658,66.6192 354,64.5C 355.425,59.5879 356.425,54.5879 357,49.5C 357.619,46.4209 359.119,43.9209 361.5,42C 360.565,39.6194 360.232,37.1194 360.5,34.5C 361.215,29.0204 362.548,23.6871 364.5,18.5C 360.787,15.1162 357.121,11.7829 353.5,8.5C 353.47,7.50278 353.97,6.83611 355,6.5C 363.065,8.95108 371.231,10.9511 379.5,12.5C 374.627,33.9939 369.127,55.3273 363,76.5C 359.225,73.7003 355.392,71.0336 351.5,68.5 Z"/></g>
<g><path style="opacity:1" fill="#c52c3b" d="M 360.5,34.5 C 360.232,37.1194 360.565,39.6194 361.5,42C 359.119,43.9209 357.619,46.4209 357,49.5C 356.425,54.5879 355.425,59.5879 354,64.5C 353.658,66.6192 352.825,66.9526 351.5,65.5C 354.055,54.9318 357.055,44.5985 360.5,34.5 Z"/></g>
<g><path style="opacity:1" fill="#e73736" d="M 460.5,111.5 C 459.508,111.328 458.842,111.662 458.5,112.5C 455.445,111.476 452.445,110.143 449.5,108.5C 449.167,107.333 448.833,106.167 448.5,105C 450.658,96.3693 452.658,87.7026 454.5,79C 453.75,72.6056 450.083,69.439 443.5,69.5C 434.843,70.4234 426.176,71.2567 417.5,72C 415.385,72.5573 413.385,73.3906 411.5,74.5C 408.36,72.527 405.36,70.3603 402.5,68C 401.552,67.5172 400.552,67.3505 399.5,67.5C 403.999,63.6101 409.332,61.7768 415.5,62C 426.522,61.4138 437.522,60.5805 448.5,59.5C 461.026,58.2098 468.026,63.7098 469.5,76C 467.024,88.0716 464.024,99.9049 460.5,111.5 Z"/></g>
<g><path style="opacity:1" fill="#e0534d" d="M 535.5,51.5 C 535.5,51.8333 535.5,52.1667 535.5,52.5C 534.391,53.29 533.058,53.79 531.5,54C 520.632,53.8089 509.965,54.9755 499.5,57.5C 503.444,59.4041 503.11,60.4041 498.5,60.5C 497.778,59.4489 496.778,58.7822 495.5,58.5C 496.749,56.8639 498.416,55.6972 500.5,55C 512.121,53.3224 523.788,52.1557 535.5,51.5 Z"/></g>
<g><path style="opacity:1" fill="#db3538" d="M 514.5,79.5 C 514.66,77.8008 514.494,76.1341 514,74.5C 512.583,73.9221 511.75,72.9221 511.5,71.5C 513.094,71.9195 514.594,72.5862 516,73.5C 518.024,73.2005 518.524,72.3671 517.5,71C 528.215,71.1471 538.549,70.3137 548.5,68.5C 549.301,66.9582 549.634,65.2915 549.5,63.5C 548.325,63.719 547.325,63.3857 546.5,62.5C 547.167,60.8333 547.833,59.1667 548.5,57.5C 548.167,56.5 547.5,55.8333 546.5,55.5C 545.756,56.9905 545.09,58.4905 544.5,60C 531.827,60.8942 531.494,60.0609 543.5,57.5C 541.167,56.8333 538.833,56.1667 536.5,55.5C 550.899,53.6968 550.566,52.6968 535.5,52.5C 535.5,52.1667 535.5,51.8333 535.5,51.5C 537.167,51.5 538.833,51.5 540.5,51.5C 545.181,51.3314 549.848,50.9981 554.5,50.5C 552.985,57.5574 551.319,64.5574 549.5,71.5C 539.111,71.59 528.778,72.4234 518.5,74C 517.584,74.3742 516.75,74.8742 516,75.5C 515.79,77.0581 515.29,78.3915 514.5,79.5 Z"/></g>
<g><path style="opacity:1" fill="#e83334" d="M 626.5,63.5 C 625.833,63.5 625.167,63.5 624.5,63.5C 624.66,61.8008 624.494,60.1341 624,58.5C 623.667,59.1667 623.333,59.8333 623,60.5C 621.31,57.9763 619.143,55.9763 616.5,54.5C 604.836,55.4157 593.169,56.5823 581.5,58C 580.391,58.6377 579.225,59.1377 578,59.5C 574.021,57.7692 570.521,55.4359 567.5,52.5C 574.229,51.0281 581.062,49.6948 588,48.5C 594.146,49.5098 600.313,49.6765 606.5,49C 606.833,48.6667 607.167,48.3333 607.5,48C 606.167,47.6667 604.833,47.3333 603.5,47C 610.38,46.7105 617.046,45.8771 623.5,44.5C 625.948,43.5269 628.615,43.1936 631.5,43.5C 630.325,50.4008 628.658,57.0674 626.5,63.5 Z"/></g>
<g><path style="opacity:1" fill="#df4340" d="M 623.5,44.5 C 617.046,45.8771 610.38,46.7105 603.5,47C 604.833,47.3333 606.167,47.6667 607.5,48C 607.167,48.3333 606.833,48.6667 606.5,49C 600.313,49.6765 594.146,49.5098 588,48.5C 581.062,49.6948 574.229,51.0281 567.5,52.5C 568.527,50.8058 569.861,49.4725 571.5,48.5C 588.794,46.8389 606.127,45.5056 623.5,44.5 Z"/></g>
<g><path style="opacity:1" fill="#b72e3b" d="M 624.5,63.5 C 625.167,63.5 625.833,63.5 626.5,63.5C 616.726,65.3293 606.726,66.3293 596.5,66.5C 597.263,65.7321 598.263,65.2321 599.5,65C 607.844,64.5735 616.177,64.0735 624.5,63.5 Z"/></g>
<g><path style="opacity:1" fill="#d00421" d="M 567.5,52.5 C 570.521,55.4359 574.021,57.7692 578,59.5C 579.225,59.1377 580.391,58.6377 581.5,58C 593.169,56.5823 604.836,55.4157 616.5,54.5C 619.143,55.9763 621.31,57.9763 623,60.5C 623.333,59.8333 623.667,59.1667 624,58.5C 624.494,60.1341 624.66,61.8008 624.5,63.5C 616.177,64.0735 607.844,64.5735 599.5,65C 598.263,65.2321 597.263,65.7321 596.5,66.5C 596.167,66.5 595.833,66.5 595.5,66.5C 592.881,66.2317 590.381,66.565 588,67.5C 584.922,64.7477 581.589,62.4144 578,60.5C 577,61.5 576,62.5 575,63.5C 572.375,71.6674 570.541,80.0008 569.5,88.5C 569.565,88.9382 569.399,89.2716 569,89.5C 568.015,87.6341 567.515,85.6341 567.5,83.5C 568.369,79.1823 568.536,74.8489 568,70.5C 567.667,70.1667 567.333,69.8333 567,69.5C 565.185,71.4049 563.185,73.0716 561,74.5C 560.798,76.2556 560.298,77.9223 559.5,79.5C 558.599,76.205 558.599,72.8717 559.5,69.5C 559.857,65.737 560.69,62.0704 562,58.5C 563.179,55.7399 565.012,53.7399 567.5,52.5 Z"/></g>
<g><path style="opacity:1" fill="#ce0320" d="M 548.5,68.5 C 538.549,70.3137 528.215,71.1471 517.5,71C 518.524,72.3671 518.024,73.2005 516,73.5C 514.594,72.5862 513.094,71.9195 511.5,71.5C 510.522,69.1884 508.855,67.5218 506.5,66.5C 507.025,65.8076 507.692,65.3076 508.5,65C 519.422,62.6486 530.422,61.8153 541.5,62.5C 543.418,65.026 545.751,67.026 548.5,68.5 Z"/></g>
<g><path style="opacity:1" fill="#db5551" d="M 351.5,67.5 C 351.5,67.8333 351.5,68.1667 351.5,68.5C 338.729,70.5593 325.729,71.5593 312.5,71.5C 325.329,69.9004 338.329,68.5671 351.5,67.5 Z"/></g>
<g><path style="opacity:1" fill="#d74a4c" d="M 95.5,58.5 C 94.2366,65.8177 92.2366,72.8177 89.5,79.5C 90.9665,72.8947 92.1332,66.228 93,59.5C 93.6708,58.7476 94.5041,58.4142 95.5,58.5 Z"/></g>
<g><path style="opacity:1" fill="#df5b58" d="M 267.5,76.5 C 255.678,78.2388 243.678,78.9054 231.5,78.5C 241.326,77.2721 251.326,76.2721 261.5,75.5C 263.696,75.5046 265.696,75.838 267.5,76.5 Z"/></g>
<g><path style="opacity:1" fill="#cf0623" d="M 308.5,73.5 C 307.697,74.4232 307.53,75.4232 308,76.5C 310.695,78.6944 313.528,80.6944 316.5,82.5C 319.64,80.9779 322.973,80.1446 326.5,80C 338.495,79.0155 350.495,78.1822 362.5,77.5C 356.006,102.141 349.506,126.808 343,151.5C 341.401,153.036 339.567,153.536 337.5,153C 335.845,150.347 333.845,148.014 331.5,146C 330.552,145.517 329.552,145.351 328.5,145.5C 329.122,144.373 329.955,143.373 331,142.5C 336.185,124.426 340.685,106.426 344.5,88.5C 338.876,89.4056 333.209,90.0723 327.5,90.5C 324.119,87.7983 320.452,85.465 316.5,83.5C 315.201,84.09 314.368,85.09 314,86.5C 308.998,104.838 303.998,123.171 299,141.5C 296.185,152.264 300.185,157.264 311,156.5C 326.672,155.25 342.338,153.916 358,152.5C 359.5,152.833 361,153.167 362.5,153.5C 363.654,156.32 364.987,158.986 366.5,161.5C 357.422,164.064 348.255,164.064 339,161.5C 336.78,163.193 334.28,164.193 331.5,164.5C 319.195,165.649 306.862,166.316 294.5,166.5C 288.962,165.46 285.629,162.127 284.5,156.5C 283.631,154.283 283.298,151.95 283.5,149.5C 288.367,127.364 293.867,105.364 300,83.5C 301.343,81.1609 302.676,78.8276 304,76.5C 305.129,74.8588 306.629,73.8588 308.5,73.5 Z"/></g>
<g><path style="opacity:1" fill="#e73535" d="M 397.5,4.5 C 384.419,49.8142 372.085,95.4809 360.5,141.5C 365.833,141.5 371.167,141.5 376.5,141.5C 377.762,141.907 379.095,142.24 380.5,142.5C 379.002,144.854 377.668,147.187 376.5,149.5C 373.514,153.817 370.18,157.817 366.5,161.5C 364.987,158.986 363.654,156.32 362.5,153.5C 361,153.167 359.5,152.833 358,152.5C 342.338,153.916 326.672,155.25 311,156.5C 300.185,157.264 296.185,152.264 299,141.5C 303.998,123.171 308.998,104.838 314,86.5C 314.368,85.09 315.201,84.09 316.5,83.5C 320.452,85.465 324.119,87.7983 327.5,90.5C 322.19,108.404 317.19,126.404 312.5,144.5C 313,145.881 314,146.547 315.5,146.5C 319.787,145.625 324.121,145.292 328.5,145.5C 329.552,145.351 330.552,145.517 331.5,146C 333.845,148.014 335.845,150.347 337.5,153C 339.567,153.536 341.401,153.036 343,151.5C 349.506,126.808 356.006,102.141 362.5,77.5C 350.495,78.1822 338.495,79.0155 326.5,80C 322.973,80.1446 319.64,80.9779 316.5,82.5C 313.528,80.6944 310.695,78.6944 308,76.5C 307.53,75.4232 307.697,74.4232 308.5,73.5C 309.514,72.3263 310.847,71.6596 312.5,71.5C 325.729,71.5593 338.729,70.5593 351.5,68.5C 355.392,71.0336 359.225,73.7003 363,76.5C 369.127,55.3273 374.627,33.9939 379.5,12.5C 371.231,10.9511 363.065,8.95108 355,6.5C 353.97,6.83611 353.47,7.50278 353.5,8.5C 352.094,8.02694 351.427,7.02694 351.5,5.5C 357.051,5.47295 362.384,4.80629 367.5,3.5C 377.438,2.26648 387.438,1.59981 397.5,1.5C 397.5,2.5 397.5,3.5 397.5,4.5 Z"/></g>
<g><path style="opacity:1" fill="#cf0622" d="M 399.5,67.5 C 400.552,67.3505 401.552,67.5172 402.5,68C 405.36,70.3603 408.36,72.527 411.5,74.5C 413.385,73.3906 415.385,72.5573 417.5,72C 426.176,71.2567 434.843,70.4234 443.5,69.5C 450.083,69.439 453.75,72.6056 454.5,79C 452.658,87.7026 450.658,96.3693 448.5,105C 448.833,106.167 449.167,107.333 449.5,108.5C 452.445,110.143 455.445,111.476 458.5,112.5C 449.484,113.732 440.484,115.065 431.5,116.5C 425.006,117.444 418.339,118.111 411.5,118.5C 408.688,116.592 405.688,114.925 402.5,113.5C 401.614,112.675 401.281,111.675 401.5,110.5C 416.864,109.797 432.198,108.63 447.5,107C 442.964,105.238 438.964,102.738 435.5,99.5C 436.99,93.2059 438.323,86.8726 439.5,80.5C 434.199,81.1773 428.866,81.6773 423.5,82C 422.309,82.6979 421.309,83.5313 420.5,84.5C 419.194,79.9762 416.194,76.9762 411.5,75.5C 410.108,76.6053 408.941,77.9386 408,79.5C 403.107,98.5264 398.107,117.526 393,136.5C 391.964,144.131 395.297,148.131 403,148.5C 420.74,147.034 438.407,145.367 456,143.5C 457.722,146.279 458.889,149.279 459.5,152.5C 455.76,152.759 452.094,152.426 448.5,151.5C 447.614,152.325 447.281,153.325 447.5,154.5C 440.873,155.241 434.706,154.241 429,151.5C 424.546,152.703 420.046,153.703 415.5,154.5C 416.729,155.281 418.062,155.781 419.5,156C 413.309,156.272 407.143,156.772 401,157.5C 398.783,156.953 396.783,155.953 395,154.5C 390.891,157.018 386.724,157.018 382.5,154.5C 380.863,152.684 379.363,150.684 378,148.5C 377.617,149.056 377.117,149.389 376.5,149.5C 377.668,147.187 379.002,144.854 380.5,142.5C 379.095,142.24 377.762,141.907 376.5,141.5C 379.205,133.708 381.538,125.708 383.5,117.5C 384.496,117.586 385.329,117.252 386,116.5C 387.159,111.202 387.993,105.869 388.5,100.5C 390.348,91.7742 392.515,83.1076 395,74.5C 396.026,71.7613 397.526,69.428 399.5,67.5 Z"/></g>
<g><path style="opacity:1" fill="#e73434" d="M 420.5,84.5 C 419.482,89.9044 418.149,95.2377 416.5,100.5C 422.906,101.418 429.239,101.084 435.5,99.5C 438.964,102.738 442.964,105.238 447.5,107C 432.198,108.63 416.864,109.797 401.5,110.5C 401.281,111.675 401.614,112.675 402.5,113.5C 405.688,114.925 408.688,116.592 411.5,118.5C 409.915,124.756 408.582,131.09 407.5,137.5C 410.146,138.164 412.979,138.498 416,138.5C 434.435,136.317 452.935,134.983 471.5,134.5C 470.911,138.472 469.577,142.138 467.5,145.5C 465.471,147.858 463.471,150.192 461.5,152.5C 460.833,152.5 460.167,152.5 459.5,152.5C 458.889,149.279 457.722,146.279 456,143.5C 438.407,145.367 420.74,147.034 403,148.5C 395.297,148.131 391.964,144.131 393,136.5C 398.107,117.526 403.107,98.5264 408,79.5C 408.941,77.9386 410.108,76.6053 411.5,75.5C 416.194,76.9762 419.194,79.9762 420.5,84.5 Z"/></g>
<g><path style="opacity:1" fill="#cc0d27" d="M 559.5,69.5 C 558.599,72.8717 558.599,76.205 559.5,79.5C 560.298,77.9223 560.798,76.2556 561,74.5C 563.185,73.0716 565.185,71.4049 567,69.5C 567.333,69.8333 567.667,70.1667 568,70.5C 568.536,74.8489 568.369,79.1823 567.5,83.5C 567.515,85.6341 568.015,87.6341 569,89.5C 569.399,89.2716 569.565,88.9382 569.5,88.5C 570.219,91.7201 572.219,93.8868 575.5,95C 578.817,95.4983 582.15,95.665 585.5,95.5C 587.288,95.2148 588.955,95.5481 590.5,96.5C 589.483,99.028 588.316,99.028 587,96.5C 585.812,97.5634 585.312,98.8967 585.5,100.5C 582.102,100.82 578.768,100.487 575.5,99.5C 575,98.1195 574,97.4528 572.5,97.5C 569.911,98.466 567.578,99.7993 565.5,101.5C 572.811,102.331 580.144,102.831 587.5,103C 588.059,103.725 588.392,104.558 588.5,105.5C 587.159,108.897 585.826,112.23 584.5,115.5C 585.167,111.5 585.833,107.5 586.5,103.5C 580.166,104.068 573.833,104.234 567.5,104C 561.438,102.938 557.605,99.4378 556,93.5C 554.669,85.0069 555.836,77.0069 559.5,69.5 Z"/></g>
<g><path style="opacity:1" fill="#dc5c5b" d="M 164.5,84.5 C 165.274,83.8529 166.274,83.5195 167.5,83.5C 170.179,83.9357 172.845,84.4357 175.5,85C 178.786,86.2817 181.12,88.4483 182.5,91.5C 177.356,87.1908 171.356,84.8575 164.5,84.5 Z"/></g>
<g><path style="opacity:1" fill="#e73534" d="M 267.5,76.5 C 275.614,78.6283 279.614,83.9617 279.5,92.5C 276.06,109.658 271.894,126.658 267,143.5C 266.503,145.81 266.337,148.143 266.5,150.5C 272.152,149.968 277.819,149.635 283.5,149.5C 283.298,151.95 283.631,154.283 284.5,156.5C 283.504,156.414 282.671,156.748 282,157.5C 278.635,161.693 275.135,165.693 271.5,169.5C 269.363,161.562 264.029,158.395 255.5,160C 252.534,157.735 251.201,154.735 251.5,151C 256.148,132.378 260.815,113.711 265.5,95C 264.51,88.1434 260.51,85.3101 253.5,86.5C 242.801,87.1947 232.134,88.1947 221.5,89.5C 224.278,93.1001 227.945,95.2667 232.5,96C 231.226,96.9772 231.226,97.8106 232.5,98.5C 226.089,124.39 219.089,150.057 211.5,175.5C 208.236,172.853 204.903,170.186 201.5,167.5C 201.167,166.667 200.833,165.833 200.5,165C 207.087,140.152 213.754,115.319 220.5,90.5C 217.537,86.1912 213.537,83.5245 208.5,82.5C 209.23,80.955 210.563,80.1216 212.5,80C 218.827,79.349 225.16,78.849 231.5,78.5C 243.678,78.9054 255.678,78.2388 267.5,76.5 Z"/></g>
<g><path style="opacity:1" fill="#d10221" d="M 585.5,95.5 C 589.741,94.1816 594.074,94.3483 598.5,96C 600.049,98.0983 601.049,100.432 601.5,103C 599.745,110.518 597.912,118.018 596,125.5C 595.535,126.931 594.701,128.097 593.5,129C 590.034,127.934 586.701,126.267 583.5,124C 582.748,123.329 582.414,122.496 582.5,121.5C 582.875,119.302 583.542,117.302 584.5,115.5C 585.826,112.23 587.159,108.897 588.5,105.5C 588.392,104.558 588.059,103.725 587.5,103C 580.144,102.831 572.811,102.331 565.5,101.5C 567.578,99.7993 569.911,98.466 572.5,97.5C 574,97.4528 575,98.1195 575.5,99.5C 578.768,100.487 582.102,100.82 585.5,100.5C 585.312,98.8967 585.812,97.5634 587,96.5C 588.316,99.028 589.483,99.028 590.5,96.5C 588.955,95.5481 587.288,95.2148 585.5,95.5 Z"/></g>
<g><path style="opacity:1" fill="#cf0b24" d="M 118.5,88.5 C 117.909,89.1515 117.243,89.8182 116.5,90.5C 118.656,92.4904 120.656,94.6571 122.5,97C 135.018,96.7717 147.518,95.9383 160,94.5C 164.398,94.7001 167.732,96.7001 170,100.5C 170.577,104.888 170.244,109.221 169,113.5C 167.059,119.155 165.226,124.822 163.5,130.5C 161.998,129.917 160.665,129.084 159.5,128C 150.875,126.799 142.208,126.299 133.5,126.5C 133.5,126.167 133.5,125.833 133.5,125.5C 139.509,125.299 145.509,124.966 151.5,124.5C 152.99,118.206 154.323,111.873 155.5,105.5C 146.181,106.347 136.847,107.014 127.5,107.5C 121.907,107.193 116.407,107.527 111,108.5C 110.506,106.866 110.34,105.199 110.5,103.5C 111.343,98.4616 112.343,93.4616 113.5,88.5C 115.167,88.5 116.833,88.5 118.5,88.5 Z"/></g>
<g><path style="opacity:1" fill="#b62233" d="M 250.5,100.5 C 250.5,99.5 250.5,98.5 250.5,97.5C 244.484,97.5925 238.484,97.9258 232.5,98.5C 232.611,97.8826 232.944,97.3826 233.5,97C 239.491,96.5005 245.491,96.3338 251.5,96.5C 251.768,98.099 251.434,99.4324 250.5,100.5 Z"/></g>
<g><path style="opacity:1" fill="#e83434" d="M 535.5,52.5 C 550.566,52.6968 550.899,53.6968 536.5,55.5C 538.833,56.1667 541.167,56.8333 543.5,57.5C 531.494,60.0609 531.827,60.8942 544.5,60C 545.09,58.4905 545.756,56.9905 546.5,55.5C 547.5,55.8333 548.167,56.5 548.5,57.5C 547.833,59.1667 547.167,60.8333 546.5,62.5C 547.325,63.3857 548.325,63.719 549.5,63.5C 549.634,65.2915 549.301,66.9582 548.5,68.5C 545.751,67.026 543.418,65.026 541.5,62.5C 530.422,61.8153 519.422,62.6486 508.5,65C 507.692,65.3076 507.025,65.8076 506.5,66.5C 508.855,67.5218 510.522,69.1884 511.5,71.5C 511.75,72.9221 512.583,73.9221 514,74.5C 514.494,76.1341 514.66,77.8008 514.5,79.5C 508.742,103.421 502.409,127.088 495.5,150.5C 494.167,150.5 492.833,150.5 491.5,150.5C 491.918,149.778 492.584,149.278 493.5,149C 489.795,146.628 486.795,143.628 484.5,140C 490.46,117.869 496.293,95.7027 502,73.5C 502.639,70.8877 503.806,68.5543 505.5,66.5C 503.071,64.3884 500.738,62.3884 498.5,60.5C 503.11,60.4041 503.444,59.4041 499.5,57.5C 509.965,54.9755 520.632,53.8089 531.5,54C 533.058,53.79 534.391,53.29 535.5,52.5 Z"/></g>
<g><path style="opacity:1" fill="#c91a2d" d="M 486.5,79.5 C 486.276,84.0586 486.942,88.3919 488.5,92.5C 487.5,92.5 486.5,92.5 485.5,92.5C 485.587,89.4017 485.087,89.0684 484,91.5C 483.039,95.3051 482.206,99.1384 481.5,103C 481.969,104.887 482.969,106.387 484.5,107.5C 483.675,108.386 482.675,108.719 481.5,108.5C 481.477,110.927 480.977,113.26 480,115.5C 479.667,114.167 479.333,112.833 479,111.5C 477.736,116.153 476.236,120.487 474.5,124.5C 477.754,109.199 481.754,94.1992 486.5,79.5 Z"/></g>
<g><path style="opacity:1" fill="#e73735" d="M 595.5,66.5 C 593.316,67.2663 590.982,67.9329 588.5,68.5C 586.209,74.3312 584.542,80.3312 583.5,86.5C 589.52,86.2391 595.52,86.0725 601.5,86C 612.455,89.0714 616.955,96.2381 615,107.5C 612.843,115.129 610.843,122.795 609,130.5C 607.726,133.936 605.559,136.603 602.5,138.5C 602.489,136.983 601.823,135.816 600.5,135C 598.167,133.5 595.833,132 593.5,130.5C 575.338,133.863 557.004,135.697 538.5,136C 535.5,133.833 532.5,131.667 529.5,129.5C 529.031,135.228 529.698,140.895 531.5,146.5C 531.5,146.833 531.5,147.167 531.5,147.5C 532.498,152.818 533.498,158.151 534.5,163.5C 545.842,166.168 557.175,168.834 568.5,171.5C 571.503,173.262 574.837,174.428 578.5,175C 575.02,176.103 571.687,177.269 568.5,178.5C 565.583,177.709 562.75,177.709 560,178.5C 559.517,177.552 559.351,176.552 559.5,175.5C 557.833,175.5 556.167,175.5 554.5,175.5C 545.584,174.57 536.917,172.57 528.5,169.5C 525.852,158.941 523.852,148.275 522.5,137.5C 521.5,137.5 520.5,137.5 519.5,137.5C 515.229,149.378 510.396,161.045 505,172.5C 499.958,174.85 494.792,176.85 489.5,178.5C 486.859,177.737 484.192,177.57 481.5,178C 482.938,178.219 484.271,178.719 485.5,179.5C 482.616,180.854 479.616,181.854 476.5,182.5C 470.039,180.733 463.373,180.066 456.5,180.5C 462.319,179.672 468.319,179.172 474.5,179C 475.737,178.768 476.737,178.268 477.5,177.5C 485.628,174.52 493.461,170.853 501,166.5C 508.743,148.684 516.743,131.017 525,113.5C 526.373,118.072 527.206,122.739 527.5,127.5C 530.5,127.5 533.5,127.5 536.5,127.5C 545.507,127.2 554.507,126.7 563.5,126C 565.382,125.802 567.048,125.302 568.5,124.5C 573.369,124.096 578.035,123.096 582.5,121.5C 582.414,122.496 582.748,123.329 583.5,124C 586.701,126.267 590.034,127.934 593.5,129C 594.701,128.097 595.535,126.931 596,125.5C 597.912,118.018 599.745,110.518 601.5,103C 601.049,100.432 600.049,98.0983 598.5,96C 594.074,94.3483 589.741,94.1816 585.5,95.5C 582.15,95.665 578.817,95.4983 575.5,95C 572.219,93.8868 570.219,91.7201 569.5,88.5C 570.541,80.0008 572.375,71.6674 575,63.5C 576,62.5 577,61.5 578,60.5C 581.589,62.4144 584.922,64.7477 588,67.5C 590.381,66.565 592.881,66.2317 595.5,66.5 Z"/></g>
<g><path style="opacity:1" fill="#c84356" d="M 110.5,103.5 C 110.34,105.199 110.506,106.866 111,108.5C 116.407,107.527 121.907,107.193 127.5,107.5C 121.35,108.543 115.016,109.21 108.5,109.5C 108.595,107.214 109.262,105.214 110.5,103.5 Z"/></g>
<g><path style="opacity:1" fill="#cf0322" d="M 495.5,58.5 C 496.778,58.7822 497.778,59.4489 498.5,60.5C 500.738,62.3884 503.071,64.3884 505.5,66.5C 503.806,68.5543 502.639,70.8877 502,73.5C 496.293,95.7027 490.46,117.869 484.5,140C 486.795,143.628 489.795,146.628 493.5,149C 492.584,149.278 491.918,149.778 491.5,150.5C 485.824,150.334 480.157,150.501 474.5,151C 473.944,151.383 473.611,151.883 473.5,152.5C 471.265,152.795 469.265,152.461 467.5,151.5C 467.954,149.259 467.954,147.259 467.5,145.5C 469.577,142.138 470.911,138.472 471.5,134.5C 473.417,131.509 474.417,128.176 474.5,124.5C 476.236,120.487 477.736,116.153 479,111.5C 479.333,112.833 479.667,114.167 480,115.5C 480.977,113.26 481.477,110.927 481.5,108.5C 482.675,108.719 483.675,108.386 484.5,107.5C 482.969,106.387 481.969,104.887 481.5,103C 482.206,99.1384 483.039,95.3051 484,91.5C 485.087,89.0684 485.587,89.4017 485.5,92.5C 486.5,92.5 487.5,92.5 488.5,92.5C 486.942,88.3919 486.276,84.0586 486.5,79.5C 487.036,74.6898 488.203,70.0231 490,65.5C 490.935,62.4048 492.769,60.0714 495.5,58.5 Z"/></g>
<g><path style="opacity:1" fill="#ca1a2e" d="M 50.5,101.5 C 50.7867,109.886 50.2867,118.219 49,126.5C 48.0853,127.328 47.4186,128.328 47,129.5C 46.6667,127.833 46.3333,126.167 46,124.5C 44.1902,126.484 44.0235,128.651 45.5,131C 44.9915,132.169 44.1581,133.002 43,133.5C 42.1781,138.185 40.6781,142.519 38.5,146.5C 41.7434,131.186 45.7434,116.186 50.5,101.5 Z"/></g>
<g><path style="opacity:1" fill="#c12837" d="M 388.5,100.5 C 387.993,105.869 387.159,111.202 386,116.5C 385.329,117.252 384.496,117.586 383.5,117.5C 384.721,111.597 386.388,105.931 388.5,100.5 Z"/></g>
<g><path style="opacity:1" fill="#b92c3f" d="M 460.5,111.5 C 460.5,112.5 460.5,113.5 460.5,114.5C 450.846,115.291 441.179,115.958 431.5,116.5C 440.484,115.065 449.484,113.732 458.5,112.5C 458.842,111.662 459.508,111.328 460.5,111.5 Z"/></g>
<g><path style="opacity:1" fill="#ce6060" d="M 133.5,125.5 C 133.5,125.833 133.5,126.167 133.5,126.5C 128.187,127.098 122.854,127.431 117.5,127.5C 122.616,126.194 127.949,125.527 133.5,125.5 Z"/></g>
<g><path style="opacity:1" fill="#d75552" d="M 568.5,124.5 C 567.048,125.302 565.382,125.802 563.5,126C 554.507,126.7 545.507,127.2 536.5,127.5C 546.949,125.759 557.616,124.759 568.5,124.5 Z"/></g>
<g><path style="opacity:1" fill="#d75050" d="M 474.5,124.5 C 474.417,128.176 473.417,131.509 471.5,134.5C 452.935,134.983 434.435,136.317 416,138.5C 412.979,138.498 410.146,138.164 407.5,137.5C 428.856,135.998 450.19,134.165 471.5,132C 472.282,129.328 473.282,126.828 474.5,124.5 Z"/></g>
<g><path style="opacity:1" fill="#cf0422" d="M 271.5,169.5 C 270.048,170.302 268.382,170.802 266.5,171C 259.833,171.667 253.167,171.667 246.5,171C 241.056,169.058 238.056,165.225 237.5,159.5C 237.517,153.42 238.183,147.42 239.5,141.5C 242.409,127.524 246.076,113.857 250.5,100.5C 251.434,99.4324 251.768,98.099 251.5,96.5C 245.491,96.3338 239.491,96.5005 233.5,97C 232.944,97.3826 232.611,97.8826 232.5,98.5C 231.226,97.8106 231.226,96.9772 232.5,96C 227.945,95.2667 224.278,93.1001 221.5,89.5C 232.134,88.1947 242.801,87.1947 253.5,86.5C 260.51,85.3101 264.51,88.1434 265.5,95C 260.815,113.711 256.148,132.378 251.5,151C 251.201,154.735 252.534,157.735 255.5,160C 264.029,158.395 269.363,161.562 271.5,169.5 Z"/></g>
<g><path style="opacity:1" fill="#ce0323" d="M 602.5,138.5 C 601.089,140.539 599.089,141.539 596.5,141.5C 592.818,141.335 589.152,141.501 585.5,142C 584.584,142.278 583.918,142.778 583.5,143.5C 571.821,143.968 560.154,144.635 548.5,145.5C 542.828,145.76 537.161,146.093 531.5,146.5C 529.698,140.895 529.031,135.228 529.5,129.5C 532.5,131.667 535.5,133.833 538.5,136C 557.004,135.697 575.338,133.863 593.5,130.5C 595.833,132 598.167,133.5 600.5,135C 601.823,135.816 602.489,136.983 602.5,138.5 Z"/></g>
<g><path style="opacity:1" fill="#c85662" d="M 596.5,141.5 C 592.343,142.449 588.01,143.116 583.5,143.5C 583.918,142.778 584.584,142.278 585.5,142C 589.152,141.501 592.818,141.335 596.5,141.5 Z"/></g>
<g><path style="opacity:1" fill="#ce0924" d="M 208.5,82.5 C 213.537,83.5245 217.537,86.1912 220.5,90.5C 213.754,115.319 207.087,140.152 200.5,165C 200.833,165.833 201.167,166.667 201.5,167.5C 204.903,170.186 208.236,172.853 211.5,175.5C 205.87,176.292 200.203,176.625 194.5,176.5C 191.167,176.5 187.833,176.5 184.5,176.5C 184.5,175.167 184.5,173.833 184.5,172.5C 184.5,171.833 184.5,171.167 184.5,170.5C 185.551,167.145 186.551,163.645 187.5,160C 186.944,158.989 186.278,158.156 185.5,157.5C 186.5,157.5 187.5,157.5 188.5,157.5C 194.408,132.196 201.074,107.196 208.5,82.5 Z"/></g>
<g><path style="opacity:1" fill="#bc3a4d" d="M 548.5,145.5 C 543.056,146.884 537.389,147.55 531.5,147.5C 531.5,147.167 531.5,146.833 531.5,146.5C 537.161,146.093 542.828,145.76 548.5,145.5 Z"/></g>
<g><path style="opacity:1" fill="#bf2d39" d="M 491.5,150.5 C 492.833,150.5 494.167,150.5 495.5,150.5C 488.347,151.538 481.014,152.204 473.5,152.5C 473.611,151.883 473.944,151.383 474.5,151C 480.157,150.501 485.824,150.334 491.5,150.5 Z"/></g>
<g><path style="opacity:1" fill="#ca1b2c" d="M 459.5,152.5 C 460.167,152.5 460.833,152.5 461.5,152.5C 461.389,153.117 461.056,153.617 460.5,154C 439.021,156.082 417.521,157.915 396,159.5C 390.539,160.073 386.039,158.406 382.5,154.5C 386.724,157.018 390.891,157.018 395,154.5C 396.783,155.953 398.783,156.953 401,157.5C 407.143,156.772 413.309,156.272 419.5,156C 418.062,155.781 416.729,155.281 415.5,154.5C 420.046,153.703 424.546,152.703 429,151.5C 434.706,154.241 440.873,155.241 447.5,154.5C 447.281,153.325 447.614,152.325 448.5,151.5C 452.094,152.426 455.76,152.759 459.5,152.5 Z"/></g>
<g><path style="opacity:1" fill="#da6376" d="M 467.5,151.5 C 469.265,152.461 471.265,152.795 473.5,152.5C 471.307,153.797 468.973,153.797 466.5,152.5C 466.624,151.893 466.957,151.56 467.5,151.5 Z"/></g>
<g><path style="opacity:1" fill="#b03241" d="M 239.5,141.5 C 238.183,147.42 237.517,153.42 237.5,159.5C 235.944,153.293 236.61,147.293 239.5,141.5 Z"/></g>
<g><path style="opacity:1" fill="#cd0e27" d="M 105.5,132.5 C 103.463,136.546 101.797,140.713 100.5,145C 100.748,146.716 101.415,148.216 102.5,149.5C 101.758,150.287 100.925,150.953 100,151.5C 99.7489,153.433 99.2489,155.266 98.5,157C 99.6174,158.892 101.284,159.725 103.5,159.5C 103.181,157.25 103.681,155.25 105,153.5C 106.933,157.076 107.433,160.742 106.5,164.5C 106.583,168.272 108.083,171.272 111,173.5C 111.765,173.43 112.265,173.097 112.5,172.5C 113.609,172.557 114.609,172.89 115.5,173.5C 114.77,175.045 113.437,175.878 111.5,176C 115.85,178.724 120.517,179.224 125.5,177.5C 127.731,177.981 127.898,178.648 126,179.5C 118.849,181.303 112.349,179.97 106.5,175.5C 105.252,176.04 104.085,176.707 103,177.5C 102.308,178.437 102.475,179.103 103.5,179.5C 102.001,180.494 100.334,180.494 98.5,179.5C 96.1558,176.996 94.6558,173.996 94,170.5C 94.8919,159.257 97.2252,148.257 101,137.5C 102.047,135.292 103.547,133.626 105.5,132.5 Z"/></g>
<g><path style="opacity:1" fill="#e83535" d="M 164.5,84.5 C 171.356,84.8575 177.356,87.1908 182.5,91.5C 185.323,95.3196 186.156,99.6529 185,104.5C 179.867,122.365 175.367,140.365 171.5,158.5C 176.181,158.331 180.848,157.998 185.5,157.5C 186.278,158.156 186.944,158.989 187.5,160C 186.551,163.645 185.551,167.145 184.5,170.5C 181.806,172.527 179.473,174.861 177.5,177.5C 175.445,175.766 174.112,173.433 173.5,170.5C 166.167,169.585 158.834,169.418 151.5,170C 152.333,169.167 153.167,168.333 154,167.5C 157.104,155.812 160.271,144.145 163.5,132.5C 162,132.167 160.5,131.833 159,131.5C 151.845,132.156 144.679,132.656 137.5,133C 130.477,133.241 123.644,134.407 117,136.5C 113.385,134.438 109.552,133.105 105.5,132.5C 108.274,128.132 112.274,126.465 117.5,127.5C 122.854,127.431 128.187,127.098 133.5,126.5C 142.208,126.299 150.875,126.799 159.5,128C 160.665,129.084 161.998,129.917 163.5,130.5C 165.226,124.822 167.059,119.155 169,113.5C 170.244,109.221 170.577,104.888 170,100.5C 167.732,96.7001 164.398,94.7001 160,94.5C 147.518,95.9383 135.018,96.7717 122.5,97C 120.656,94.6571 118.656,92.4904 116.5,90.5C 117.243,89.8182 117.909,89.1515 118.5,88.5C 133.725,86.434 149.058,85.1007 164.5,84.5 Z"/></g>
<g><path style="opacity:1" fill="#cf0321" d="M 177.5,177.5 C 177.158,178.338 176.492,178.672 175.5,178.5C 167.826,178.666 160.159,178.5 152.5,178C 148.587,174.616 145.587,175.116 143.5,179.5C 131.24,181.644 118.907,182.478 106.5,182C 105.922,180.583 104.922,179.75 103.5,179.5C 102.475,179.103 102.308,178.437 103,177.5C 104.085,176.707 105.252,176.04 106.5,175.5C 112.349,179.97 118.849,181.303 126,179.5C 127.898,178.648 127.731,177.981 125.5,177.5C 120.517,179.224 115.85,178.724 111.5,176C 113.437,175.878 114.77,175.045 115.5,173.5C 126.483,172.586 137.483,171.919 148.5,171.5C 147.221,167.698 144.888,164.531 141.5,162C 143.278,159.865 143.945,157.365 143.5,154.5C 144.085,150.409 145.085,146.409 146.5,142.5C 140.812,141.258 135.145,141.258 129.5,142.5C 125.45,141.317 121.617,139.651 118,137.5C 117.228,137.645 116.561,137.978 116,138.5C 113.186,147.065 110.686,155.732 108.5,164.5C 108.782,167.731 110.115,170.398 112.5,172.5C 112.265,173.097 111.765,173.43 111,173.5C 108.083,171.272 106.583,168.272 106.5,164.5C 107.433,160.742 106.933,157.076 105,153.5C 103.681,155.25 103.181,157.25 103.5,159.5C 101.284,159.725 99.6174,158.892 98.5,157C 99.2489,155.266 99.7489,153.433 100,151.5C 100.925,150.953 101.758,150.287 102.5,149.5C 101.415,148.216 100.748,146.716 100.5,145C 101.797,140.713 103.463,136.546 105.5,132.5C 109.552,133.105 113.385,134.438 117,136.5C 123.644,134.407 130.477,133.241 137.5,133C 144.679,132.656 151.845,132.156 159,131.5C 160.5,131.833 162,132.167 163.5,132.5C 160.271,144.145 157.104,155.812 154,167.5C 153.167,168.333 152.333,169.167 151.5,170C 158.834,169.418 166.167,169.585 173.5,170.5C 174.112,173.433 175.445,175.766 177.5,177.5 Z"/></g>
<g><path style="opacity:1" fill="#e83435" d="M 129.5,142.5 C 126.592,148.775 124.592,155.442 123.5,162.5C 129.172,162.133 134.839,161.633 140.5,161C 141.731,158.834 142.731,156.667 143.5,154.5C 143.945,157.365 143.278,159.865 141.5,162C 144.888,164.531 147.221,167.698 148.5,171.5C 137.483,171.919 126.483,172.586 115.5,173.5C 114.609,172.89 113.609,172.557 112.5,172.5C 110.115,170.398 108.782,167.731 108.5,164.5C 110.686,155.732 113.186,147.065 116,138.5C 116.561,137.978 117.228,137.645 118,137.5C 121.617,139.651 125.45,141.317 129.5,142.5 Z"/></g>
<g><path style="opacity:1" fill="#c33342" d="M 331.5,164.5 C 319.252,167.197 306.918,167.864 294.5,166.5C 306.862,166.316 319.195,165.649 331.5,164.5 Z"/></g>
<g><path style="opacity:1" fill="#bc3a45" d="M 184.5,172.5 C 184.5,173.833 184.5,175.167 184.5,176.5C 187.833,176.5 191.167,176.5 194.5,176.5C 190.684,177.482 186.684,178.149 182.5,178.5C 182.595,176.214 183.262,174.214 184.5,172.5 Z"/></g>
<g><path style="opacity:1" fill="#e16a65" d="M 477.5,177.5 C 476.737,178.268 475.737,178.768 474.5,179C 468.319,179.172 462.319,179.672 456.5,180.5C 455.167,180.5 453.833,180.5 452.5,180.5C 450.833,180.5 449.167,180.5 447.5,180.5C 457.29,178.844 467.29,177.844 477.5,177.5 Z"/></g>
<g><path style="opacity:1" fill="#c52d3b" d="M 175.5,178.5 C 169.842,179.39 164.008,180.056 158,180.5C 154.703,180.766 151.87,179.766 149.5,177.5C 146.963,179.267 144.297,180.767 141.5,182C 131.331,182.81 121.164,183.643 111,184.5C 106.073,184.475 101.907,182.808 98.5,179.5C 100.334,180.494 102.001,180.494 103.5,179.5C 104.922,179.75 105.922,180.583 106.5,182C 118.907,182.478 131.24,181.644 143.5,179.5C 145.587,175.116 148.587,174.616 152.5,178C 160.159,178.5 167.826,178.666 175.5,178.5 Z"/></g>
<g><path style="opacity:1" fill="#dc5655" d="M 447.5,180.5 C 445.833,181.167 444.167,181.833 442.5,182.5C 438.833,182.5 435.167,182.5 431.5,182.5C 420.962,184.274 410.295,184.94 399.5,184.5C 415.301,182.517 431.301,181.183 447.5,180.5 Z"/></g>
<g><path style="opacity:1" fill="#e5343a" d="M 447.5,180.5 C 449.167,180.5 450.833,180.5 452.5,180.5C 452.611,181.117 452.944,181.617 453.5,182C 458.202,182.172 462.868,182.672 467.5,183.5C 464.833,183.833 462.167,184.167 459.5,184.5C 453.764,184.314 448.097,183.648 442.5,182.5C 444.167,181.833 445.833,181.167 447.5,180.5 Z"/></g>
<g><path style="opacity:1" fill="#dd4343" d="M 568.5,171.5 C 573.007,172.209 577.34,173.376 581.5,175C 572.448,178.863 563.448,182.697 554.5,186.5C 554.281,185.325 554.614,184.325 555.5,183.5C 557.529,184.629 557.863,184.129 556.5,182C 558.488,181.82 560.488,181.986 562.5,182.5C 562.5,181.5 562.5,180.5 562.5,179.5C 564.735,179.795 566.735,179.461 568.5,178.5C 571.687,177.269 575.02,176.103 578.5,175C 574.837,174.428 571.503,173.262 568.5,171.5 Z"/></g>
<g><path style="opacity:1" fill="#e83f28" d="M 489.5,178.5 C 486.537,180.786 483.204,182.619 479.5,184C 458.117,186.231 436.784,188.731 415.5,191.5C 415.5,190.5 415.5,189.5 415.5,188.5C 422.143,186.999 432.809,186.166 447.5,186C 441.762,185.466 436.429,184.299 431.5,182.5C 435.167,182.5 438.833,182.5 442.5,182.5C 448.097,183.648 453.764,184.314 459.5,184.5C 462.167,184.167 464.833,183.833 467.5,183.5C 462.868,182.672 458.202,182.172 453.5,182C 452.944,181.617 452.611,181.117 452.5,180.5C 453.833,180.5 455.167,180.5 456.5,180.5C 463.373,180.066 470.039,180.733 476.5,182.5C 479.616,181.854 482.616,180.854 485.5,179.5C 484.271,178.719 482.938,178.219 481.5,178C 484.192,177.57 486.859,177.737 489.5,178.5 Z"/></g>
<g><path style="opacity:1" fill="#e4412b" d="M 554.5,175.5 C 556.167,175.5 557.833,175.5 559.5,175.5C 559.351,176.552 559.517,177.552 560,178.5C 562.75,177.709 565.583,177.709 568.5,178.5C 566.735,179.461 564.735,179.795 562.5,179.5C 562.5,180.5 562.5,181.5 562.5,182.5C 560.488,181.986 558.488,181.82 556.5,182C 557.863,184.129 557.529,184.629 555.5,183.5C 554.614,184.325 554.281,185.325 554.5,186.5C 553.07,187.537 551.403,188.204 549.5,188.5C 547.325,188.318 545.325,187.651 543.5,186.5C 541.109,187.191 541.109,188.191 543.5,189.5C 543,189.833 542.5,190.167 542,190.5C 539.901,188.172 537.735,188.006 535.5,190C 536.5,190.333 537.5,190.667 538.5,191C 536.715,192.163 534.715,192.83 532.5,193C 531.44,194.298 530.274,195.465 529,196.5C 527.7,195.293 526.2,194.626 524.5,194.5C 521.824,200.876 519.991,207.543 519,214.5C 518.683,212.699 518.016,212.366 517,213.5C 515.308,216.644 514.142,219.977 513.5,223.5C 512.817,223.137 512.15,222.804 511.5,222.5C 515.678,212.814 519.844,203.148 524,193.5C 534.718,188.56 545.552,183.727 556.5,179C 556.957,178.586 557.291,178.086 557.5,177.5C 556.398,176.824 555.398,176.158 554.5,175.5 Z"/></g>
<g><path style="opacity:1" fill="#f8bf0e" d="M 554.5,175.5 C 555.398,176.158 556.398,176.824 557.5,177.5C 557.291,178.086 556.957,178.586 556.5,179C 545.552,183.727 534.718,188.56 524,193.5C 519.844,203.148 515.678,212.814 511.5,222.5C 510.428,224.882 509.262,227.216 508,229.5C 507.667,228.833 507.333,228.167 507,227.5C 505.754,216.852 503.92,206.352 501.5,196C 494.087,194.609 486.754,192.942 479.5,191C 475.476,190.503 471.476,190.669 467.5,191.5C 456.601,192.525 445.934,194.192 435.5,196.5C 420.746,198.082 406.08,200.082 391.5,202.5C 379.558,203.216 367.891,204.882 356.5,207.5C 352.486,207.334 348.486,207.501 344.5,208C 330.701,210.19 317.035,212.356 303.5,214.5C 292.617,215.2 281.95,216.533 271.5,218.5C 269.052,219.473 266.385,219.806 263.5,219.5C 255.264,220.197 247.264,221.531 239.5,223.5C 226.715,224.348 214.048,226.015 201.5,228.5C 187.218,229.439 173.218,231.439 159.5,234.5C 153.966,234.668 148.633,235.335 143.5,236.5C 135.923,236.696 128.589,237.696 121.5,239.5C 101.491,241.986 81.4908,244.653 61.5,247.5C 56.2419,244.574 51.5752,240.907 47.5,236.5C 48.3602,234.386 50.0268,233.22 52.5,233C 58.5273,232.573 64.5273,231.907 70.5,231C 71.4158,230.722 72.0825,230.222 72.5,229.5C 92.4496,227.006 112.45,225.006 132.5,223.5C 146.984,221.614 161.317,219.614 175.5,217.5C 176.5,217.5 177.5,217.5 178.5,217.5C 193.734,216.678 208.734,215.011 223.5,212.5C 287.472,205.504 351.472,198.504 415.5,191.5C 436.784,188.731 458.117,186.231 479.5,184C 483.204,182.619 486.537,180.786 489.5,178.5C 494.792,176.85 499.958,174.85 505,172.5C 510.396,161.045 515.229,149.378 519.5,137.5C 520.5,137.5 521.5,137.5 522.5,137.5C 523.852,148.275 525.852,158.941 528.5,169.5C 536.917,172.57 545.584,174.57 554.5,175.5 Z"/></g>
<g><path style="opacity:1" fill="#134632" d="M 510.5,175.5 C 510.678,176.695 511.011,177.862 511.5,179C 510.313,182.474 508.646,182.974 506.5,180.5C 506.167,180.833 505.833,181.167 505.5,181.5C 507.118,184.943 509.285,187.943 512,190.5C 512.87,189.892 513.37,189.059 513.5,188C 512.491,186.832 511.491,185.665 510.5,184.5C 512.909,183.278 514.742,183.945 516,186.5C 518.432,185.55 520.932,185.55 523.5,186.5C 521.897,187.596 520.397,188.93 519,190.5C 517.249,195.008 514.749,199.008 511.5,202.5C 509.634,199.07 508.468,195.403 508,191.5C 503.34,189.921 498.84,187.921 494.5,185.5C 500.076,182.598 505.409,179.265 510.5,175.5 Z"/></g>
<g><path style="opacity:1" fill="#04433c" d="M 524.5,186.5 C 524.167,186.5 523.833,186.5 523.5,186.5C 520.932,185.55 518.432,185.55 516,186.5C 514.742,183.945 512.909,183.278 510.5,184.5C 511.491,185.665 512.491,186.832 513.5,188C 513.37,189.059 512.87,189.892 512,190.5C 509.285,187.943 507.118,184.943 505.5,181.5C 505.833,181.167 506.167,180.833 506.5,180.5C 508.646,182.974 510.313,182.474 511.5,179C 511.011,177.862 510.678,176.695 510.5,175.5C 514.136,173.635 515.136,174.468 513.5,178C 513.388,179.662 514.054,180.829 515.5,181.5C 517.374,180.065 519.374,178.898 521.5,178C 522.635,177.251 523.635,177.417 524.5,178.5C 523.024,179.88 522.024,181.547 521.5,183.5C 522.993,184.141 523.993,185.141 524.5,186.5 Z"/></g>
<g><path style="opacity:1" fill="#124730" d="M 521.5,171.5 C 521.238,172.978 521.571,174.311 522.5,175.5C 526.734,176.675 530.734,178.341 534.5,180.5C 531.47,183.014 528.137,185.014 524.5,186.5C 523.993,185.141 522.993,184.141 521.5,183.5C 522.024,181.547 523.024,179.88 524.5,178.5C 523.635,177.417 522.635,177.251 521.5,178C 519.374,178.898 517.374,180.065 515.5,181.5C 514.054,180.829 513.388,179.662 513.5,178C 515.136,174.468 514.136,173.635 510.5,175.5C 511.742,171.345 513.742,167.678 516.5,164.5C 517.117,164.389 517.617,164.056 518,163.5C 518.322,166.666 519.489,169.333 521.5,171.5 Z"/></g>
<g><path style="opacity:1" fill="#4e5b15" d="M 521.5,171.5 C 519.489,169.333 518.322,166.666 518,163.5C 517.617,164.056 517.117,164.389 516.5,164.5C 516.541,162.255 517.375,161.588 519,162.5C 519.739,165.546 520.572,168.546 521.5,171.5 Z"/></g>
<g><path style="opacity:1" fill="#cf0523" d="M 482.5,204.5 C 362.693,226.192 242.693,247.525 122.5,268.5C 113.468,268.71 104.468,269.377 95.5,270.5C 96.0253,271.192 96.6919,271.692 97.5,272C 95.5,272.333 93.5,272.667 91.5,273C 90.944,273.383 90.6107,273.883 90.5,274.5C 61.3234,279.337 32.3234,284.67 3.5,290.5C 2.16667,290.5 0.833333,290.5 -0.5,290.5C -0.5,289.5 -0.5,288.5 -0.5,287.5C 1.32104,282.548 2.98771,277.548 4.5,272.5C 5.51027,269.67 7.17694,267.17 9.5,265C 8.09218,262.708 8.25885,260.541 10,258.5C 10.3333,260.5 10.6667,262.5 11,264.5C 12.1006,261.133 13.6006,257.966 15.5,255C 14.5715,252.107 13.5715,249.273 12.5,246.5C 14.0097,241.952 15.0097,237.286 15.5,232.5C 22.5626,203.577 30.2293,174.91 38.5,146.5C 40.6781,142.519 42.1781,138.185 43,133.5C 44.1581,133.002 44.9915,132.169 45.5,131C 44.0235,128.651 44.1902,126.484 46,124.5C 46.3333,126.167 46.6667,127.833 47,129.5C 47.4186,128.328 48.0853,127.328 49,126.5C 50.2867,118.219 50.7867,109.886 50.5,101.5C 55.0056,83.1446 59.6723,64.8112 64.5,46.5C 61.1874,41.5212 57.1874,37.1879 52.5,33.5C 52.9169,32.8761 53.5836,32.5427 54.5,32.5C 63.9225,35.8634 73.5891,38.1968 83.5,39.5C 62.8517,116.094 42.5184,192.76 22.5,269.5C 170.264,245.702 317.931,221.869 465.5,198C 474.698,197.906 483.698,199.239 492.5,202C 488.821,202.026 485.488,202.86 482.5,204.5 Z"/></g>
<g><path style="opacity:1" fill="#e83533" d="M 95.5,58.5 C 94.5041,58.4142 93.6708,58.7476 93,59.5C 92.1332,66.228 90.9665,72.8947 89.5,79.5C 78.4365,123.353 66.7698,167.019 54.5,210.5C 53.5489,211.919 53.2155,213.585 53.5,215.5C 61.4008,215.209 69.0675,214.209 76.5,212.5C 77.5,212.5 78.5,212.5 79.5,212.5C 90.1797,212.333 100.846,211.833 111.5,211C 113.382,210.802 115.048,210.302 116.5,209.5C 125.384,207.965 134.384,207.298 143.5,207.5C 151.546,207.116 159.546,206.449 167.5,205.5C 175.908,205.492 183.908,204.492 191.5,202.5C 192.5,202.5 193.5,202.5 194.5,202.5C 209.926,202.654 224.926,201.321 239.5,198.5C 252.872,198.619 266.206,197.953 279.5,196.5C 282.167,196.667 284.833,196.833 287.5,197C 285.833,197.333 284.167,197.667 282.5,198C 287.742,198.959 292.742,198.292 297.5,196C 296.5,195.667 295.5,195.333 294.5,195C 300.5,194.667 306.5,194.333 312.5,194C 319.013,193.109 325.346,191.942 331.5,190.5C 331.833,190.5 332.167,190.5 332.5,190.5C 347.18,189.998 361.847,189.165 376.5,188C 384.547,187.46 392.214,186.293 399.5,184.5C 410.295,184.94 420.962,184.274 431.5,182.5C 436.429,184.299 441.762,185.466 447.5,186C 432.809,186.166 422.143,186.999 415.5,188.5C 415.5,189.5 415.5,190.5 415.5,191.5C 351.472,198.504 287.472,205.504 223.5,212.5C 216.825,212.334 210.158,212.5 203.5,213C 195.073,214.248 186.739,215.748 178.5,217.5C 177.5,217.5 176.5,217.5 175.5,217.5C 160.735,218.012 146.068,219.512 131.5,222C 132.056,222.383 132.389,222.883 132.5,223.5C 112.45,225.006 92.4496,227.006 72.5,229.5C 62.9593,230.19 53.626,231.69 44.5,234C 45.3734,235.045 46.3734,235.878 47.5,236.5C 51.5752,240.907 56.2419,244.574 61.5,247.5C 81.4908,244.653 101.491,241.986 121.5,239.5C 127.018,239.498 132.518,239.165 138,238.5C 140.295,238.453 142.129,237.787 143.5,236.5C 148.633,235.335 153.966,234.668 159.5,234.5C 173.759,233.343 187.759,231.343 201.5,228.5C 214.048,226.015 226.715,224.348 239.5,223.5C 246.846,222.865 254.179,222.032 261.5,221C 262.416,220.722 263.082,220.222 263.5,219.5C 266.385,219.806 269.052,219.473 271.5,218.5C 276.844,218.666 282.177,218.499 287.5,218C 293.16,217.271 298.494,216.104 303.5,214.5C 317.035,212.356 330.701,210.19 344.5,208C 348.486,207.501 352.486,207.334 356.5,207.5C 368.598,206.863 380.264,205.196 391.5,202.5C 406.08,200.082 420.746,198.082 435.5,196.5C 445.03,196.745 454.363,195.911 463.5,194C 465.437,193.878 466.77,193.045 467.5,191.5C 471.476,190.669 475.476,190.503 479.5,191C 486.754,192.942 494.087,194.609 501.5,196C 503.92,206.352 505.754,216.852 507,227.5C 507.333,228.167 507.667,228.833 508,229.5C 509.262,227.216 510.428,224.882 511.5,222.5C 512.15,222.804 512.817,223.137 513.5,223.5C 514.142,219.977 515.308,216.644 517,213.5C 518.016,212.366 518.683,212.699 519,214.5C 519.991,207.543 521.824,200.876 524.5,194.5C 526.2,194.626 527.7,195.293 529,196.5C 530.274,195.465 531.44,194.298 532.5,193C 534.715,192.83 536.715,192.163 538.5,191C 537.5,190.667 536.5,190.333 535.5,190C 537.735,188.006 539.901,188.172 542,190.5C 542.5,190.167 543,189.833 543.5,189.5C 541.109,188.191 541.109,187.191 543.5,186.5C 545.325,187.651 547.325,188.318 549.5,188.5C 542.389,191.974 535.222,195.64 528,199.5C 520.813,217.168 512.98,234.501 504.5,251.5C 501.269,235.177 498.102,218.843 495,202.5C 490.934,203.581 486.767,204.248 482.5,204.5C 485.488,202.86 488.821,202.026 492.5,202C 483.698,199.239 474.698,197.906 465.5,198C 317.931,221.869 170.264,245.702 22.5,269.5C 42.5184,192.76 62.8517,116.094 83.5,39.5C 73.5891,38.1968 63.9225,35.8634 54.5,32.5C 53.5836,32.5427 52.9169,32.8761 52.5,33.5C 51.9569,33.44 51.6236,33.1067 51.5,32.5C 55.4454,31.5091 59.4454,31.1758 63.5,31.5C 73.0679,31.2904 82.4012,30.2904 91.5,28.5C 95.4659,27.8379 99.4659,27.5045 103.5,27.5C 100.841,37.8158 98.1739,48.1491 95.5,58.5 Z"/></g>
<g><path style="opacity:1" fill="#fdab27" d="M 72.5,229.5 C 72.0825,230.222 71.4158,230.722 70.5,231C 64.5273,231.907 58.5273,232.573 52.5,233C 50.0268,233.22 48.3602,234.386 47.5,236.5C 46.3734,235.878 45.3734,235.045 44.5,234C 53.626,231.69 62.9593,230.19 72.5,229.5 Z"/></g>
<g><path style="opacity:1" fill="#e55718" d="M 201.5,228.5 C 187.759,231.343 173.759,233.343 159.5,234.5C 173.218,231.439 187.218,229.439 201.5,228.5 Z"/></g>
<g><path style="opacity:1" fill="#dd5c16" d="M 263.5,219.5 C 263.082,220.222 262.416,220.722 261.5,221C 254.179,222.032 246.846,222.865 239.5,223.5C 247.264,221.531 255.264,220.197 263.5,219.5 Z"/></g>
<g><path style="opacity:1" fill="#e14a20" d="M 175.5,217.5 C 161.317,219.614 146.984,221.614 132.5,223.5C 132.389,222.883 132.056,222.383 131.5,222C 146.068,219.512 160.735,218.012 175.5,217.5 Z"/></g>
<g><path style="opacity:1" fill="#e2571a" d="M 303.5,214.5 C 298.494,216.104 293.16,217.271 287.5,218C 282.177,218.499 276.844,218.666 271.5,218.5C 281.95,216.533 292.617,215.2 303.5,214.5 Z"/></g>
<g><path style="opacity:1" fill="#d95e5b" d="M 54.5,210.5 C 54.5,211.833 54.5,213.167 54.5,214.5C 61.8046,213.57 69.1379,212.903 76.5,212.5C 69.0675,214.209 61.4008,215.209 53.5,215.5C 53.2155,213.585 53.5489,211.919 54.5,210.5 Z"/></g>
<g><path style="opacity:1" fill="#e7571d" d="M 223.5,212.5 C 208.734,215.011 193.734,216.678 178.5,217.5C 186.739,215.748 195.073,214.248 203.5,213C 210.158,212.5 216.825,212.334 223.5,212.5 Z"/></g>
<g><path style="opacity:1" fill="#dc5554" d="M 116.5,209.5 C 115.048,210.302 113.382,210.802 111.5,211C 100.846,211.833 90.1797,212.333 79.5,212.5C 91.6365,210.894 103.97,209.894 116.5,209.5 Z"/></g>
<g><path style="opacity:1" fill="#d3625b" d="M 167.5,204.5 C 167.5,204.833 167.5,205.167 167.5,205.5C 159.546,206.449 151.546,207.116 143.5,207.5C 151.264,205.72 159.264,204.72 167.5,204.5 Z"/></g>
<g><path style="opacity:1" fill="#e0511c" d="M 391.5,202.5 C 380.264,205.196 368.598,206.863 356.5,207.5C 367.891,204.882 379.558,203.216 391.5,202.5 Z"/></g>
<g><path style="opacity:1" fill="#d55550" d="M 191.5,202.5 C 183.908,204.492 175.908,205.492 167.5,205.5C 167.5,205.167 167.5,204.833 167.5,204.5C 175.482,203.653 183.482,202.986 191.5,202.5 Z"/></g>
<g><path style="opacity:1" fill="#d84f50" d="M 239.5,198.5 C 224.926,201.321 209.926,202.654 194.5,202.5C 209.302,200.588 224.302,199.255 239.5,198.5 Z"/></g>
<g><path style="opacity:1" fill="#e14443" d="M 331.5,190.5 C 325.346,191.942 319.013,193.109 312.5,194C 306.5,194.333 300.5,194.667 294.5,195C 295.5,195.333 296.5,195.667 297.5,196C 292.742,198.292 287.742,198.959 282.5,198C 284.167,197.667 285.833,197.333 287.5,197C 284.833,196.833 282.167,196.667 279.5,196.5C 266.206,197.953 252.872,198.619 239.5,198.5C 250.64,196.96 261.973,195.96 273.5,195.5C 280.415,195.867 287.081,195.201 293.5,193.5C 306.138,192.216 318.805,191.216 331.5,190.5 Z"/></g>
<g><path style="opacity:1" fill="#e24e1f" d="M 467.5,191.5 C 466.77,193.045 465.437,193.878 463.5,194C 454.363,195.911 445.03,196.745 435.5,196.5C 445.934,194.192 456.601,192.525 467.5,191.5 Z"/></g>
<g><path style="opacity:1" fill="#e57977" d="M 293.5,193.5 C 287.081,195.201 280.415,195.867 273.5,195.5C 279.979,194.402 286.646,193.735 293.5,193.5 Z"/></g>
<g><path style="opacity:1" fill="#d8524e" d="M 399.5,184.5 C 392.214,186.293 384.547,187.46 376.5,188C 361.847,189.165 347.18,189.998 332.5,190.5C 354.639,187.987 376.973,185.987 399.5,184.5 Z"/></g>
<g><path style="opacity:1" fill="#df5120" d="M 143.5,236.5 C 142.129,237.787 140.295,238.453 138,238.5C 132.518,239.165 127.018,239.498 121.5,239.5C 128.589,237.696 135.923,236.696 143.5,236.5 Z"/></g>
<g><path style="opacity:1" fill="#c8202f" d="M 15.5,232.5 C 15.0097,237.286 14.0097,241.952 12.5,246.5C 13.5715,249.273 14.5715,252.107 15.5,255C 13.6006,257.966 12.1006,261.133 11,264.5C 10.6667,262.5 10.3333,260.5 10,258.5C 8.25885,260.541 8.09218,262.708 9.5,265C 7.17694,267.17 5.51027,269.67 4.5,272.5C 7.38929,258.849 11.056,245.516 15.5,232.5 Z"/></g>
<g><path style="opacity:1" fill="#c52032" d="M 122.5,268.5 C 112.009,270.766 101.342,272.766 90.5,274.5C 90.6107,273.883 90.944,273.383 91.5,273C 93.5,272.667 95.5,272.333 97.5,272C 96.6919,271.692 96.0253,271.192 95.5,270.5C 104.468,269.377 113.468,268.71 122.5,268.5 Z"/></g>
</svg>
